<svg id="Courage" xmlns="http://www.w3.org/2000/svg" viewBox="0 0 1179 1596.91"><defs><style>.cls-1{fill:#ed2024;}.cls-2{fill:#be1e2d;}.cls-3,.cls-4{fill:#fff;}.cls-4{fill-rule:evenodd;}</style></defs><title>lined_coat-of-arms_courage</title><path class="cls-1" d="M1243.18,69.25H84.24a9.81,9.81,0,0,0-9.82,9.8c0,83.49-.17,676.39-.21,844.84a669.34,669.34,0,0,0,8.72,110.24c17.66,105.9,56.74,231.41,141.88,321,167.55,176.23,387.73,287.51,434.65,310.09a9.84,9.84,0,0,0,8.51,0c46.91-22.58,267.09-133.86,434.64-310.09,85.14-89.55,124.22-215.06,141.88-321a669.34,669.34,0,0,0,8.72-110.24c0-168.44-.17-761.34-.21-844.85A9.81,9.81,0,0,0,1243.18,69.25Z" transform="translate(-74.21 -69.25)"/><g id="Shield_-_Courage" data-name="Shield - Courage"><path class="cls-2" d="M1216.19,105.82h-1105a9.35,9.35,0,0,0-9.35,9.35c0,91.67-.21,826.87-.21,848.16,0,.32,0,.63,0,.95,11.08,110,44.87,264.61,143.56,368.49C405,1500.94,614.88,1607.12,659.61,1628.66a9.33,9.33,0,0,0,8.12,0c44.73-21.54,254.67-127.72,414.42-295.89,98.68-103.87,132.47-258.45,143.55-368.48,0-.32,0-.63,0-.95,0-21.28-.17-756.49-.21-848.17A9.34,9.34,0,0,0,1216.19,105.82Z" transform="translate(-74.21 -69.25)"/><polygon class="cls-1" points="1151.52 54.45 27.47 54.45 27.47 226.62 587.94 939 1151.53 227.73 1151.52 54.45"/><path class="cls-3" d="M491.92,1193.83a20.19,20.19,0,0,0-.6-2.29,8.39,8.39,0,0,0-2-3.45,5,5,0,0,0-4-.66,18.94,18.94,0,0,0-5.2,1.68s-5.34,2.41-5.87,11,4.8,18.43,4.8,18.43,1.07-8,3.74-13.62,8.81-8.55,8.81-8.55a3,3,0,0,0,.27-2.49" transform="translate(-74.21 -69.25)"/><path class="cls-3" d="M377.85,863.48a7.06,7.06,0,0,0-.78-5.09c-.9-1.43-3-2.42-5.49-2.52a38.33,38.33,0,0,0-16,4.28c-8.18,4.26-10.32,16.37-10.32,16.37s6.76-6,11.74-7.12a46.24,46.24,0,0,1,10.69-.71,29.76,29.76,0,0,0,6.67-1.78c2-.83,3.23-2,3.51-3.43" transform="translate(-74.21 -69.25)"/><path class="cls-3" d="M564,547.53c7.26-.53,14.58-1.38,21.46-3.71,3.49-1,6.5-3.25,10.31-3.79a13,13,0,0,1,2.79.08c-12.2-3.7-24.16-6.6-28.14-5.2-8.59,3-6.68,11.71-6.45,12.64,0,0,0,0,0,0" transform="translate(-74.21 -69.25)"/><path class="cls-3" d="M972.2,725.93c-18.51-15.67-12.11-42.73-28.47-57.68s-20.66-10.69-20.66-10.69a425.15,425.15,0,0,0,30.62-42.71c15.66-24.93.71-34.18,2.85-54.12a25.37,25.37,0,0,1,5.53-13.1c-2.5,1.19-5,2.44-7.39,3.75a87.47,87.47,0,0,0-17.19,12.29,43.44,43.44,0,0,0-11.65,16.74c-2.33,6.43-2.53,13.62-1.17,20.92a31.78,31.78,0,0,1-2.91-22.13c1.8-7.64,6.49-14.28,12-19.5a65.5,65.5,0,0,1,19.05-12.12,63.36,63.36,0,0,1,12.94-3.92A54.47,54.47,0,0,1,984.31,533s-16.38-1.42-52,10.69-22.07,53.4-24.92,75.47S891,649.73,891,649.73a67.91,67.91,0,0,0-2.85-25.63c-4.26-13.52-14.95-36.31-37-37.74-17.86-1.15-28.13,4.62-31.45,6.9a45,45,0,0,1,20.79,1.84c9,2.91,16.61,9.19,22,16.79a61,61,0,0,1,10.24,25.65,69.12,69.12,0,0,1,0,22.19,30,30,0,0,1-.79,4.17c-.07.28-.1.57-.16.85v-.18c-4.24,15-19.39,30.16-33.44,52.81-22.08,35.6-17.81,55.54-12.82,95.42s56.26,84.73,64.09,101.1,7.12,28.49-5.69,37c-8.34,5.56-25.1,4.79-35.81,3.58a60.42,60.42,0,0,0-20.28-30.82c-28.83-23.5-72.09-38.45-94-50.19-12.75-6.84-20.22-14.21-24.26-19.19-3-1.35-6-2.51-8.94-3.79-6.48-2.81-11.76-7.11-16.61-12.19-8.49-8.89-15.49-21.51-18-33.56-.19-.93,1-1.82,1.71-1,8.83,10,13.79,22.69,23,32.56,8.72,9.38,21.1,12,29.38,21.57a23.16,23.16,0,0,0,11,1.17c13.88-2.14,25.64-11.75,25.64-11.75s-15.49-3.21-24-10.15a36.31,36.31,0,0,1-11.21-15s26.7-13.34,41.66-29.37,5.33-50.73,5.33-50.73,11.76-12.28,18.69-34.71-8.54-52.87-8.54-52.87,9.08-8.55,8.54-29.38c-.45-17.4-9.07-32.9-11.9-37.54-6.45,4.92-13.83,8.78-21.88,8.48a1.24,1.24,0,0,1-.33-2.43c9-3.34,16.91-7,24.43-12.55,2.72-4.61,6.47-11.56,8.08-17.37,2.67-9.61-1.07-12.82-9.61-15s-28.3,6.94-28.3,6.94-8.55-29.91-28.84-37.91-50.2-7.48-50.2-7.48,10.15,4.27,14.95,7.48,9.75,13.58,10.08,14.28c0,0,.08-.06.13-.06A42.36,42.36,0,0,1,708,536.11a32,32,0,0,1,11.45,9.65A28.42,28.42,0,0,1,725,559.6a69.79,69.79,0,0,1-.3,14.54.19.19,0,0,1-.22.18.18.18,0,0,1-.18-.2A68.57,68.57,0,0,0,723,560a25.81,25.81,0,0,0-6.07-12.12c-3.06-3.37-7-5.69-10.91-8.16s-8.16-4.56-12.3-7.23a.2.2,0,0,1-.05-.22c-1.3-.26-27-5.24-41.54-2.12-15,3.21-21.9,20.83-21.9,20.83s-11-4.15-23.62-8.27a.18.18,0,0,1-.17.12h-.08c-3.8.11-7.81-.33-10.24.45a24.62,24.62,0,0,0-4,2,45.11,45.11,0,0,1-5.35,2.4,39.45,39.45,0,0,1-11.43,1.84A37.71,37.71,0,0,1,564,547.93H564s0-.07-.05-.1a28.49,28.49,0,0,0-9,13.79c-2.67,9.08-3.74,19.76-1.6,24s9.79,11,9.79,11a25.37,25.37,0,0,0-1.43,9.62c.36,5,1.43,11.39,1.43,11.39s1.42-6.05,3.91-8.9a54.85,54.85,0,0,0,5-7.12A80.67,80.67,0,0,0,594.1,607c12.11,1.07,18.87-2.85,27.42,5.7s18.51,26,5.34,29.54-21.36,7.12-33.83,2.14-18.51-8.19-18.51-8.19-2.49-6.76-1.77-10.32,1.77-7.83,1.77-7.83-6.76,4.62-7.83,8.9a16.2,16.2,0,0,0,0,7.83s-7.48-5-13.88-3.91-12.11,8.53-11,15.3S564.91,669,564.91,669s.71,13.17-7.83,19.22-18.51,11.75-26.71,6.41a99.31,99.31,0,0,1-15.31-12.82,19.39,19.39,0,0,0,2.86,12.46c3.91,6.41,12.45,12.82,12.45,12.82s-5.34,1.07-17.79,10.33C500.94,726,495,733,494.21,733.93a45.58,45.58,0,0,1,13.29,3.32,36.21,36.21,0,0,1,11.55,7.89,37.42,37.42,0,0,1,7.87,11.49c1.84,4.14,3.42,8.3,5.51,12.25a50,50,0,0,1,18.76-16.75,69.4,69.4,0,0,1,24.65-7.35l.47,0a3.17,3.17,0,0,1,1.3-2.22c20-14.89,39.86-32.53,48.44-56.74.77-2.18,3.83-2.89,5.09-.66a143,143,0,0,1,11.69,27.67c7-15.26,16-30,14.25-47.31-.23-2.32,2.94-4.14,4.83-2.76a55,55,0,0,1,17.77,21.16c3.23-12.1,2.16-24.37.07-37.08-.49-3,2.89-5.53,5.34-3.11,8.15,8.07,16.67,15.7,23.51,24.66-3.09-13.41-7.9-26.07-17-37.2-1.39-1.71-.15-5,2.38-4.09,12.89,4.63,23.12,12.32,32.46,21.75-5-14.75-12-28.61-17.6-43.15-.35-.93.76-1.52,1.5-1.16a24.09,24.09,0,0,1,10.17-4.14,40.91,40.91,0,0,1,13-.08,34.8,34.8,0,0,1,12.57,4.27,18.83,18.83,0,0,1,5.52,4.69c1.75,2.9,1.72,4.82,2.2,7s.58,4.22.83,6.28l.38,3,.21,1.27,1.19,0c1.09,0,2.2.15,3.3.26a21.23,21.23,0,0,1,6.61,2,17,17,0,0,1,8.28,10.4A43.14,43.14,0,0,1,776.53,652a55.63,55.63,0,0,0-4-11.64c-1.81-3.55-4.38-6.58-7.79-7.8a16.65,16.65,0,0,0-5.42-1.09c-1,0-1.93,0-2.92,0l-1.49.06-.76,0h-.28s0,0-.45,0a2.8,2.8,0,0,1-1-.32,3.68,3.68,0,0,1-.49-.36,3.11,3.11,0,0,1-.53-.63,7.1,7.1,0,0,1-.81-2.26l-.32-1.67-.46-3.15c-.28-2.06-.55-4.09-.9-6.06a16.39,16.39,0,0,0-1.38-4.82,17.07,17.07,0,0,0-4.12-3.1,41.31,41.31,0,0,0-10.83-3.92,58.86,58.86,0,0,0-11.79-1.45,33.49,33.49,0,0,0-10,1.19c8.86,16.3,17,33,22,50.93.52,1.89-2,3.49-3.38,2-8.57-9.44-17.69-17.51-28.92-22.89,9.51,14.28,13.71,30.46,16.64,47.73a3,3,0,0,1-.22,1.61,48.55,48.55,0,0,1,18.35.64,27.19,27.19,0,0,1,10.28,4.82,10.1,10.1,0,0,1,1.14,1,6.85,6.85,0,0,1,1.27,1.61,11.71,11.71,0,0,1,1.14,3.1,37.94,37.94,0,0,1,.82,5.53c.18,1.76.27,3.55.47,5.09,0,.09,0,.18,0,.28a18.42,18.42,0,0,1,2.22.9,24.8,24.8,0,0,1,8.79,7.09,22.45,22.45,0,0,1,3.11,20.84,27.38,27.38,0,0,0-.91-10.18,21.19,21.19,0,0,0-12.8-13.6,23.28,23.28,0,0,0-2.23-.74l-.57-.16c-2-1-1.68-1.66-2-2a10.57,10.57,0,0,1-.42-1.73c-.28-1.92-.4-3.61-.61-5.31-.5-3.33-.68-6.89-2.71-7.63a34.6,34.6,0,0,0-8.55-4c-3.12-1.13-6.39-2-9.71-3a51.17,51.17,0,0,0-7.63-1.77c-1.2,1.54-3.6,2.08-4.66-.17-5.67-12.18-15-21.26-24.47-30.28,1.76,14,1.37,27.51-4.46,41.14a3,3,0,0,1-.87,1.12,50.94,50.94,0,0,1,4.91,1.91c1.35.61,2.66,1.22,4,2a31.48,31.48,0,0,1,3.89,2.18c5,3.16,9.82,7.11,13.09,12.55a23.32,23.32,0,0,1,3.37,9,15.29,15.29,0,0,1-.12,5.32,18.08,18.08,0,0,1-2.07,4.61c-3.18,5.27-6.9,9.72-10.48,14.29L696,752.23l-1.21,1.67a5.49,5.49,0,0,0-.39.59c.13.22.29.43.4.65a13.68,13.68,0,0,1,1.06,2.35,18,18,0,0,1,.9,4.85c.29,6.45-1.85,12.41-4.87,17.62-6.06,10.53-16.72,17.61-27.9,20.51,10.77-4.33,19.92-12.15,25-22.1,2.49-4.93,4-10.49,3.41-15.67a14.08,14.08,0,0,0-.88-3.63,8.9,8.9,0,0,0-.77-1.58,3.54,3.54,0,0,0-.48-.71l-.25-.34-.06-.09a2.8,2.8,0,0,1-.52-1.11,2,2,0,0,1-.06-.84l.08-.48a9,9,0,0,1,1.38-2.69l1.32-1.87,2.67-3.5c3.51-4.58,7.18-9.12,9.93-13.82a14.18,14.18,0,0,0,1.49-3.3,4.86,4.86,0,0,0,0-1.49c0-.61-.14-1.22-.19-1.83a24.39,24.39,0,0,0-2.73-7.12,61.69,61.69,0,0,0-10.45-12.76c-1-1-2.1-1.92-3.13-2.95a33.29,33.29,0,0,0-3.5-2.42c-1.6-.93-3.19-1.95-4.86-2.78a4,4,0,0,1-5.08-2.39c-2.57-8.88-6.6-16.28-12.88-22.5-1.25,18.15-11.84,34-18.06,51-1.06,2.89-5.46,3.35-6.32,0a184.5,184.5,0,0,0-10.22-30.18c-9.09,20.22-24.08,39-42.77,51.09,13.73.19,27.38,3.53,39,10.38a138.32,138.32,0,0,0-24.34-4.65,117.34,117.34,0,0,0-24.36.07c-16,1.72-31.57,7.42-44,18.75,0,0,0,0,0,0a.21.21,0,0,1-.08.28.21.21,0,0,1-.26-.06c-2.6-3.72-4.72-7.78-7-11.6a34.88,34.88,0,0,0-8.24-10c-3.35-2.71-7.33-4.5-11.13-6.63s-7.85-4.09-11.75-6.62a.21.21,0,0,1-.06-.29s0,0,0,0c-1-1.15-15.82-17.59-22.69-34.42-2.64-6.47-5.82-15-8.64-24-4.18-15.09-39.59-35.06-46.08-43.76-10.33-13.85-22.91-25.43-34.49-21.91s-19.39,13.35-19.39,13.35c1.84-.19,4.18,0,5.53,2.58a4.68,4.68,0,0,1-.11,3.92,7.41,7.41,0,0,1-2,2.57,8.77,8.77,0,0,1-5.64,2.3,6.38,6.38,0,0,1-5-2.67,7.92,7.92,0,0,0,4.68-.06,8.45,8.45,0,0,0,3.28-2.41,5.34,5.34,0,0,0,1.5-2.53c.12-.75-1-2.24-2.2-3.7,0,0-2.77-3.28-9.06-1.52S339.76,633,339.76,633a31.27,31.27,0,0,1,8.06-1.51h7.55a55.77,55.77,0,0,0-4.28,10.32c-1.26,4.79.25,11.34.25,11.34s-8.06,3-13.59,8.55-7.81,13.85-7.81,13.85,6.55-6,11.84-8.31,10.57-4,10.57-4c2.39,0,4.74.82,6.73,1.18a8.83,8.83,0,0,0,1.9-4.69,19.06,19.06,0,0,0,0-6.17c-.52-1.91-.73-2.46-2.94-2.23-2.05.28-4.32,1.3-6.71,1.85,1.78-1.68,3.41-3.41,5.9-4.55a5.5,5.5,0,0,1,4.75,0,6.34,6.34,0,0,1,2.81,3.94,17,17,0,0,1,.06,7.89c-.65,2.43-1.48,5.42-4.75,6.92l-.12.06a1.14,1.14,0,0,1-.85,0c-2.83-1.07-4.5-2.92-6.79-4.26a17.39,17.39,0,0,0,3.52,10.07,28.79,28.79,0,0,0,7.54,7.55c2.26-3.4,7.95-4.45,11.79-1.38a9.37,9.37,0,0,1,1.39,13l-.21.25a1,1,0,0,1-.57.34,40.51,40.51,0,0,1-7.11.72,39.93,39.93,0,0,1,5.45-3.22,7.62,7.62,0,0,0-1.48-8.16,7.33,7.33,0,0,0-4.15-2,9,9,0,0,0-5.38.74c.07-.11.17-.2.24-.32-.26.14-11.07,6.09-14.3,11.81s-3.53,14.1-3.53,14.1,6.3-7.31,11.84-9.82a38.53,38.53,0,0,1,11.07-3s1.52,8.56,9.06,11.09,24.61,1.13,40.43-2.57c3.58-.83,5.09-.17,6.41,3.11a80.32,80.32,0,0,1,2.3,7.74c.1.36.18.67.28,1a104.51,104.51,0,0,1,2.32,30.07c-1.42,23.85,1.78,39.16,21,62.3,12.6,15.17,23.94,24,30.29,28.36,3.4,1.39,6.84,2.74,10.36,4,19.89,7.11,40.29,12.78,59.5,21.68.71.33.2,1.42-.51,1.23-23-6-45.69-13.17-68-21.23-1.94,1.28-4.76,3.22-8.83,6.2-10.68,7.83-16,12.82-27.05,11s-29.2-34.18-44.15-32.76S386.18,832,386.18,832s-1.07-3.21-8.54-3.56-17.09,6.4-17.09,6.4a20.41,20.41,0,0,1,10.33,1.79c5.69,2.49,10,7.83,10,7.83a6.51,6.51,0,0,0,4.79-.3,5.05,5.05,0,0,0,2.1-3.11,11.59,11.59,0,0,0,.16-4.26,11.83,11.83,0,0,0-1.72-4.79,6.43,6.43,0,0,1,5,3.69,8.69,8.69,0,0,1,.41,6.56,7,7,0,0,1-5.07,4.68,5.85,5.85,0,0,1-5.63-2.47,15.87,15.87,0,0,0-6.41,3.56c-3.21,2.85-2.85,7.83-2.85,7.83a6.32,6.32,0,0,1,7.78.31,7.6,7.6,0,0,1,2.34,3.85,10,10,0,0,1,.1,4.43,7.63,7.63,0,0,1-6.65,5.52,11.91,11.91,0,0,1-7.49-1.29s.71,2.85,2.14,6.77,7.47,8.18,7.47,8.18a7.6,7.6,0,0,1,6.29-1.08,9.05,9.05,0,0,1,3.19,1.35,5.58,5.58,0,0,1,2.51,3.4,9,9,0,0,1-1.66,6.85,9.79,9.79,0,0,1-2.4,2.36c-.93.54-2.22,1.17-3.3.65,0,0-.36,10.68,13.18,12.11s36-6.41,42.36-2.85,11.39,9.61,24.21,7.83,33.83-16,45.22-16.73a28,28,0,0,1,12.2,1.71c2.66-.08,5.27.07,7.4.18a23.7,23.7,0,0,1,17.19,8.92c1,1.26-.37,3.58-1.88,2.44A27.76,27.76,0,0,0,524.45,905c1.73,5.15,6.82,15.93,21.23,26.74,19.94,15,84,34.9,84,34.9s-38.46,3.56-52.7,27.77-11.39,36.31-1.42,62.66,22.79,39.16-5.7,49.84-35.78,28.31-51.8,22.43-31-16-52.34-9.61-16,13.35-16,13.35c2.77-1.15,5.84-2.12,9.29-1.12a7.13,7.13,0,0,1,4.33,3.55,11.1,11.1,0,0,1,1,5.23,20,20,0,0,1-1,4.81,8.21,8.21,0,0,1-3.33,4.2c-3,2-7.09,1.62-9.22-.65a7.57,7.57,0,0,0,7.31-1.83,5.9,5.9,0,0,0,1.61-2.9,22.37,22.37,0,0,0,.53-3.83c.09-2.58-.37-4.5-2.42-5.6s-5.12-1.47-8.1-1.86c0,0-10.68-1.6-17.62,6.41s-5.88,21.36-5.88,21.36,4.28-9.08,10.68-11.75,13.89,0,13.89,0a66.83,66.83,0,0,0,.53,6.94,71.19,71.19,0,0,0,2.95,11.49,16.87,16.87,0,0,1,7.71-3.13,11.94,11.94,0,0,1,4.52.12,5.86,5.86,0,0,1,4.23,3.47,12,12,0,0,1,.38,4.9,9.84,9.84,0,0,1-1.85,4.46c-1.95,2.63-5.67,3.9-8.32,2.46,0,0,.8,2.4,4.27,5.6s14.95,3.74,14.95,3.74a10.75,10.75,0,0,1,4.36-4.16,7.17,7.17,0,0,1,6.89,0,7.25,7.25,0,0,1,3.49,6,7.09,7.09,0,0,1-.61,3.32c-.42,1-1.47,2.2-2.65,2,0,0,12.82,5.61,23,2.14s15.48-15.48,20.82-15,25.1,2.13,34.72-2.4,12-27.77,27.23-29.12,44.6,1.88,54.48-9.07-.27-44.06-3.48-56.08-4-16,12.29-15.75,46.46,10.15,56.6,3.74c9.07-5.72,16-18.67,17.36-21.37-5.81-12.64-18.54-20.78-30.33-32-11.5-10.93-21.32-24.71-25.64-40.08a1.2,1.2,0,0,1,2.19-.92c12.52,20.22,25,37,43.33,52.42,10.76,9,17,19.31,16.93,31.81,8,12.65,24.22,31.16,50.93,32.56,40.86,2.13,49.4-3.74,67,6.94s21.63,26.43,14.95,40.32-36.57,7.75-57.14,16-27.23,15.76-27,25.9a18.73,18.73,0,0,0,8.28,15s-2.4,1.88-3.2,9.62,6.14,19.49,6.14,19.49a56,56,0,0,1,3.73-15.48c3.21-7.75,7.22-10.42,7.22-10.42,2-2,2.56-4.42,1.59-6.13a5.48,5.48,0,0,0-1.93-2.15,5.15,5.15,0,0,0-1.28-.59c-.56-.2-1.13-.39-1.67-.53-2.28-.54-3.94-.61-5.62.64a33.05,33.05,0,0,0-5,5.55,12.82,12.82,0,0,1,2.67-8,7.45,7.45,0,0,1,4.31-2.47,10,10,0,0,1,4.71.39c.7.22,1.37.48,2,.75a8.65,8.65,0,0,1,2.1,1.35,7.6,7.6,0,0,1,2.51,4.16,5.78,5.78,0,0,1-.92,4.64,6.52,6.52,0,0,1-3.51,2.36s.53.27,2.66,1.6a35.94,35.94,0,0,0,7,2.67,35.13,35.13,0,0,0-1.6,12.29c.27,7.21,7.74,18.95,7.74,18.95s-.54-11.48,2.41-16.55a33.07,33.07,0,0,1,6.4-8,22.42,22.42,0,0,0,9.09,1.34,52.88,52.88,0,0,0,11.74-2.41,12.91,12.91,0,0,1,2.92-6.65,10.91,10.91,0,0,1,6.71-4.17,9,9,0,0,1,4.37.52,7.14,7.14,0,0,1,3.37,3c1.43,2.51,1.28,6.08-1.08,7.57,0,0,4.81,1.07,11.48-3.21s4.81-23.5,13.62-25.63,22.16,1.07,27.24-7.75-14.69-45.12-14.42-64.08,23.5-66.49,10.68-74.5-34.45,4-52.87-3.2-22.44-8-20.83-25.9A275.84,275.84,0,0,0,850,982.17a48.08,48.08,0,0,0,.54-4.84c4.59.39,10.19.65,17,.65,24.92,0,42-1.41,48.43-32s-17.81-60.51-44.87-91.85-34.17-79-24.21-103.25,31.33-39.87,61.25-43.43,37,12.1,57,32.05,44.85,11.38,44.85,11.38a200.5,200.5,0,0,1-37.74-24.91M669.09,572.76c-6.76-2.12-11-1.74-19.51-.59,1-3.29,7.42-3.74,9.39-6.12s.35-4.63-.79-7.47c2.85-.3,10.06,3.78,15.18,8.17s10.18,12.38,10.18,12.38a95.09,95.09,0,0,0-14.45-6.37m79.65,9.38h-.32l-.08,0c-1.79-.8-1.69-1.74-2.16-2.5a15.74,15.74,0,0,1-.62-2.3,36.87,36.87,0,0,1-.6-4.49,41.44,41.44,0,0,1-.22-4.45c0-1.44-.12-3.06.78-4.28,3.63-2,7.73-3,11.81-4.14a18.18,18.18,0,0,1,6.71-.63,5.24,5.24,0,0,1,3.6,2.55,8.08,8.08,0,0,1,1.22,4,12.51,12.51,0,0,1-2.42,7.14,19.78,19.78,0,0,1-4.84,5,20.35,20.35,0,0,1-12.86,4.16M591.91,858c-16-1.21-37.6-9.1-49.47-22.23A69.94,69.94,0,0,0,552,847.32c6.82,6.65,13.29,12.59,17.88,21.07a1.44,1.44,0,0,1-2.49,1.45C557.16,854.62,533.19,845,533.79,824c0-.94,1.45-1.48,1.9-.51.57,1.22,1.15,2.4,1.74,3.56a.94.94,0,0,1,1,.09c16.66,12.87,32.81,24.08,53.72,29,1,.24.79,1.88-.25,1.8m32.69,225.54a77,77,0,0,0-14.68,18.28c.13-8.48,4.72-16.59,11.05-22.32s14.94-9.36,23.38-8.6a76.24,76.24,0,0,0-19.75,12.64m209.15-24.47a41.44,41.44,0,0,1-18.7,6.91,52.18,52.18,0,0,1-19.73-1.39c-6.29-1.72-12.65-4.63-16.87-9.62a39.71,39.71,0,0,0,3.89,1.88,72.8,72.8,0,0,0,17.76-1.27,62,62,0,0,0,17.73-6,34.66,34.66,0,0,0,13.46-12.13c3.32-5.21,5.05-11.38,6.35-17.94a34.54,34.54,0,0,1-2.65,20,33,33,0,0,1-14.57,14.85,49.4,49.4,0,0,1-19.78,5.43,50.67,50.67,0,0,1-9.46-.23c1.65.35,3.32.66,5,.9a70.74,70.74,0,0,0,18.21.15,49.51,49.51,0,0,0,17.15-5.13,43.06,43.06,0,0,0,13.93-12,30.17,30.17,0,0,1-11.71,15.58m2.89,156.47a9.58,9.58,0,0,0,1.48-7.58,9.3,9.3,0,0,0-4-5.51,7.14,7.14,0,0,0-6.89.19,13.34,13.34,0,0,0-5.53,6.22,11.68,11.68,0,0,1,4.09-8.32,9.48,9.48,0,0,1,10-1.45,10.13,10.13,0,0,1,6,8.4c.32,3.64-2,7.2-5.14,8M946.93,697.61c-4.75-5.27-9.44-10.5-14.71-14.87s-11-8-17.47-9.35-13.42-.06-20.14,2.69c5.53-4.52,12.95-7.7,20.72-6.89,7.77.64,14.73,4.66,20.39,9.39A87.89,87.89,0,0,1,950.24,695c4.28,5.85,7.62,12.13,11.89,17.93-5.83-4.38-10.48-10-15.2-15.3" transform="translate(-74.21 -69.25)"/><path class="cls-3" d="M745,568.35a31.59,31.59,0,0,0,.8,4.32,29,29,0,0,0,1.5,4.07,15.23,15.23,0,0,0,1,1.79,2.77,2.77,0,0,0,.54.59,24.32,24.32,0,0,0,9.52-5.28c2.74-2.39,5.39-5.36,5.9-8.18.21-1.3-.06-2.86-1.08-3.3a15.15,15.15,0,0,0-5.64-.85,27.15,27.15,0,0,0-12,2.57c-.83,1.25-.62,2.85-.56,4.27" transform="translate(-74.21 -69.25)"/><path class="cls-3" d="M748.94,579.23c.12.09.18.13.06,0Z" transform="translate(-74.21 -69.25)"/><path class="cls-3" d="M383.61,895a18.25,18.25,0,0,0,1-2.47,12.19,12.19,0,0,0,.8-4.49c0-.5-1.35-2-2.82-2.76a10.84,10.84,0,0,0-5.27-1.66s-5.7-.35-11,5-6.77,15.66-6.77,15.66,5.7-5.34,11-6,11.4-1.07,11.4-1.07a4,4,0,0,0,1.7-2.15" transform="translate(-74.21 -69.25)"/><path class="cls-3" d="M466.21,1175.31a10.42,10.42,0,0,0,.88-3,12.41,12.41,0,0,0,.07-3.06c-.1-1.22-2.59-2.16-5.07-2.27a26.45,26.45,0,0,0-7.82.54s-5.61.53-10.68,8-.8,23.5-.8,23.5,2.14-8.81,7.74-13.08a47.35,47.35,0,0,1,10.42-6.14,8.48,8.48,0,0,0,5.26-4.46" transform="translate(-74.21 -69.25)"/><path class="cls-3" d="M866.11,637.63a40.7,40.7,0,0,1,5.1,9.42,83.31,83.31,0,0,0-1.53-8.91,68.19,68.19,0,0,0-10.49-23.87A46.11,46.11,0,0,0,839.37,598a51.39,51.39,0,0,0-20.68-3.67c2.89,1.71,29.27,17.72,47.42,43.27" transform="translate(-74.21 -69.25)"/><path class="cls-3" d="M455.27,553l-103.89-8.4A53.88,53.88,0,0,0,455.27,553" transform="translate(-74.21 -69.25)"/><path class="cls-3" d="M341.79,538.68l124.77,10.08a12.35,12.35,0,0,0,2-24.61L343.78,514.07a12.35,12.35,0,1,0-2,24.61" transform="translate(-74.21 -69.25)"/><path class="cls-3" d="M417.26,592.91c-1,.19-1.93.37-2.89.52l-.17,0c-.92.14-1.84.27-2.77.37l-.44,0c-.84.08-1.69.16-2.54.22l-.85,0c-.72,0-1.45.07-2.18.08-.48,0-1,0-1.45,0h-1.62c-1,0-2.07-.09-3.11-.18s-2.08-.19-3.1-.32c-.55-.07-1.08-.17-1.61-.25l-1.43-.22c-.73-.13-1.44-.29-2.15-.43-.27-.07-.54-.11-.82-.17-.83-.19-1.65-.4-2.47-.62l-.43-.11c-.91-.26-1.8-.53-2.7-.82l-.13,0c-.94-.3-1.87-.63-2.78-1-1.85-.7-3.64-1.48-5.4-2.34h0l.45,19.87c.89-.34,1.81-.67,2.75-1,11.85-3.61,24.48,2.07,37.64,16.83l5.92-32c-1.87.56-3.77,1-5.71,1.44Z" transform="translate(-74.21 -69.25)"/><path class="cls-3" d="M378,709.08a14,14,0,0,0-3.91,8.56A14.11,14.11,0,1,0,399,709.79l.08-.41c-7.74.77-15.29.85-21.09-.3" transform="translate(-74.21 -69.25)"/><path class="cls-3" d="M389.6,494c-5.18-10-7.3-21.82-4.36-32.76,0-.08.1-.09.17-.1a67.72,67.72,0,0,1-1.06-7.79,72.91,72.91,0,0,1,0-10.76,75.43,75.43,0,0,1,1.59-10.26,87.6,87.6,0,0,1,2.84-9.5c1.12-3,2.37-5.85,3.68-8.52a121.8,121.8,0,0,1,8-13.65c2.61-3.7,4.71-6.58,6.3-8.58l2.39-3.08-3.66,1.32c-1.19.42-2.63,1.06-4.33,1.84s-3.6,1.77-5.73,2.92a81.84,81.84,0,0,0-14.4,10.27,77.35,77.35,0,0,0-15.2,18.45,79.44,79.44,0,0,0-10,27.75,80.46,80.46,0,0,0,1.83,34.1c.38,1.5.9,3,1.42,4.52l.84,2.27.84,2.14c.81,1.86,1.52,3.31,2.3,4.78s1.61,2.93,2.5,4.36A67.61,67.61,0,0,0,371,511.1L414,514.57c-10.71-2.74-19.24-11.05-24.35-20.61" transform="translate(-74.21 -69.25)"/><path class="cls-3" d="M468.41,459.57a55.61,55.61,0,0,0-2.25-9.52,61.07,61.07,0,0,0-3.44-8.5,71,71,0,0,0-4.23-7.46l-.56-.87-.07-.11a2.23,2.23,0,0,0-.15-.25l-.12-.17-.24-.36-1-1.44c-.78-1.12-1.57-2.2-2.29-3.13-2.92-3.87-5.76-7.12-8.28-10.24s-4.8-6-6.72-8.74a61.81,61.81,0,0,1-4.75-8.11A33.4,33.4,0,0,1,431,385.19c0-.62.05-1.23.07-1.83s.13-1.18.19-1.76c.07-1.17.33-2.27.49-3.35a75.06,75.06,0,0,1,2.79-10.05l1.35-3.61-3,2.44a51.12,51.12,0,0,0-7.64,8.28,42.17,42.17,0,0,0-4.28,7.26,40.91,40.91,0,0,0-3.15,9.91c-1.47,7.49-.56,16.56,2.23,25.11s7,16.85,10.43,24.47c.45,1,.78,1.84,1.14,2.67l.65,1.54.17.39.09.2s.11.22,0-.05l0,.08.23.65a53.38,53.38,0,0,1,1.56,5.18,35.21,35.21,0,0,1,1.09,9.79c-.28,6.12-2.38,11.06-6.46,16.05a45.34,45.34,0,0,1-7.63,7.12c-.72.56-1.57,1.12-2.29,1.63l-2.24,1.44c-1-1.94-1.88-3.93-2.7-5.95-.82-2.2-1.65-4.38-2.26-6.66s-1.18-4.54-1.57-6.88-.68-4.71-.87-7.12-.2-4.84-.19-7.27.2-4.83.38-7.2.45-4.7.86-6.86c.67-4.38,1.62-8.39,2.31-11.24.34-1.44.69-2.73.93-3.53s.31-1.32.31-1.32-.47.1-1.3.32a22.09,22.09,0,0,0-3.56,1.19,31.85,31.85,0,0,0-5.2,2.79,37.66,37.66,0,0,0-5.92,4.84,43.19,43.19,0,0,0-5.73,7.17,46.1,46.1,0,0,0-4.49,9.39,47.85,47.85,0,0,0-2.29,10.65s0,0,0,0a.19.19,0,0,1,.14.19v.05a63.25,63.25,0,0,0,1.93,16.17,64,64,0,0,0,5.64,14.58,57.79,57.79,0,0,0,8.93,12.69A46.67,46.67,0,0,0,415,514.45l0,0c.07,0,.06.12.06.19l6.42.52c7.87-4,14.86-9.34,19.75-16.3a54.14,54.14,0,0,0,9.07-23.48,79.28,79.28,0,0,0-.53-25.57c-.41-2.11-.93-4.2-1.38-6.31-.69-2-1.27-4.12-2.06-6.12a35.69,35.69,0,0,0-6.48-11.22c7,5.61,10.75,14.42,13,23A68.14,68.14,0,0,1,454.36,476c-1.38,8.93-4.74,17.79-10.62,24.78a44.86,44.86,0,0,1-22.23,14.4l21.7,1.75c.68-.54,1.35-1.08,2-1.66a72.76,72.76,0,0,0,13.69-15.15,60.28,60.28,0,0,0,8.65-19.59,55.58,55.58,0,0,0,.83-21" transform="translate(-74.21 -69.25)"/><path class="cls-3" d="M553,1356.63c3.42,1.82,7.35,3.94,15.42,8.28a84.76,84.76,0,0,0-6.65-27c-10.51-25-32.22-49.44-56.42-66-.44,5.48.46,14.19,2.47,24a88.82,88.82,0,0,0,45.18,60.7" transform="translate(-74.21 -69.25)"/><path class="cls-3" d="M771.27,1356.63c-3.42,1.82-7.35,3.94-15.42,8.28a84.76,84.76,0,0,1,6.65-27c10.5-25,32.22-49.44,56.41-66,.44,5.48-.46,14.19-2.46,24a88.82,88.82,0,0,1-45.18,60.7" transform="translate(-74.21 -69.25)"/><path class="cls-3" d="M532.54,1391.08a86.28,86.28,0,0,0,26-8.71c-15-8.66-17.39-10.09-21.7-12.5a68.11,68.11,0,0,0-55.2-5.3c-14.46,4.84-27.58,11.28-33.76,16.35a177.4,177.4,0,0,0,55.66,11.89,131.25,131.25,0,0,0,29-1.73" transform="translate(-74.21 -69.25)"/><path class="cls-3" d="M791.68,1391.08a86.25,86.25,0,0,1-26-8.71c15-8.66,17.4-10.09,21.7-12.5a68.11,68.11,0,0,1,55.2-5.3c14.47,4.84,27.58,11.28,33.77,16.35a177.46,177.46,0,0,1-55.67,11.89,131.23,131.23,0,0,1-29-1.73" transform="translate(-74.21 -69.25)"/><path class="cls-3" d="M499.25,1348.65l-12.52-7a85.61,85.61,0,0,0-76.21-3.47,112,112,0,0,0-18.9,10.31c28.6,12.33,77,17.7,107.63.11" transform="translate(-74.21 -69.25)"/><path class="cls-3" d="M825,1348.65l12.52-7a85.61,85.61,0,0,1,76.21-3.47,112,112,0,0,1,18.9,10.31c-28.6,12.33-77,17.7-107.63.11" transform="translate(-74.21 -69.25)"/><path class="cls-3" d="M481.89,1319.66l25.79,13.26c-1.71-24.44-18.48-58.91-61-89.15-1.19,9.88,2.49,28.77,8.52,45.51a55.24,55.24,0,0,0,26.69,30.38" transform="translate(-74.21 -69.25)"/><path class="cls-3" d="M842.32,1319.66l-25.78,13.26c1.71-24.44,18.48-58.91,61-89.15,1.19,9.88-2.49,28.77-8.53,45.51a55.21,55.21,0,0,1-26.69,30.38" transform="translate(-74.21 -69.25)"/><path class="cls-3" d="M431.7,1294.21l13.4,6.77c-1.94-28.75-27-65-47.51-85.75a68.57,68.57,0,0,0-2.47,17.73,66.91,66.91,0,0,0,36.58,61.25" transform="translate(-74.21 -69.25)"/><path class="cls-3" d="M892.52,1294.21l-13.4,6.77c1.94-28.75,27-65,47.51-85.75A69,69,0,0,1,929.1,1233a66.93,66.93,0,0,1-36.58,61.25" transform="translate(-74.21 -69.25)"/><path class="cls-3" d="M437.91,1314.84c-17-9.25-26.87-14.56-38.26-21.49-18-1.6-56.31,5.39-71.16,11.89,27.17,18.94,75.68,30,109.42,9.6" transform="translate(-74.21 -69.25)"/><path class="cls-3" d="M886.31,1314.84c16.94-9.25,26.87-14.56,38.26-21.49,18-1.6,56.31,5.39,71.15,11.89-27.16,18.94-75.67,30-109.41,9.6" transform="translate(-74.21 -69.25)"/><path class="cls-3" d="M370.3,1257.6c4.45,3.23,9.26,6.56,14.86,10.27,1.46-21.59-7.75-49.28-17.3-68.84q-1.29-2.67-2.7-5.19c-1-1.66-1.81-3.4-2.78-5s-2-3.2-3-4.74-2-3.1-3.06-4.57a70.58,70.58,0,0,0-5.09,13.39,99,99,0,0,0-3,17.32,54,54,0,0,0,22.05,47.38" transform="translate(-74.21 -69.25)"/><path class="cls-3" d="M953.92,1257.6c-4.45,3.23-9.26,6.56-14.86,10.27-1.46-21.59,7.74-49.28,17.3-68.84q1.29-2.67,2.69-5.19c1-1.66,1.81-3.4,2.79-5s2-3.2,3-4.74,2-3.1,3-4.57A69.91,69.91,0,0,1,973,1192.9a99,99,0,0,1,3,17.32,54,54,0,0,1-22,47.38" transform="translate(-74.21 -69.25)"/><path class="cls-3" d="M377.74,1279c-2.39-1.7-4.63-3.3-6.75-4.86a130.45,130.45,0,0,0-86.73-24.87,85.54,85.54,0,0,0-10,1.23c28.91,29.68,74.24,42.16,103.51,28.5" transform="translate(-74.21 -69.25)"/><path class="cls-3" d="M946.48,1279c2.39-1.7,4.62-3.3,6.74-4.86A130.49,130.49,0,0,1,1040,1249.3a85.82,85.82,0,0,1,10,1.23c-28.91,29.68-74.24,42.16-103.51,28.5" transform="translate(-74.21 -69.25)"/><path class="cls-3" d="M314.23,1205.5l2.39,2.88c2.47,2.76,10.28,11.64,16.82,17.95a79,79,0,0,0,2.58-20.89c.33-16.74-3.77-43.67-13.91-66.62-7.51,9.25-13.75,23.23-16,37.16a37.08,37.08,0,0,0,8,29.47l0,0" transform="translate(-74.21 -69.25)"/><path class="cls-3" d="M1010,1205.5l-2.4,2.88c-2.46,2.76-10.27,11.64-16.81,17.95a79.46,79.46,0,0,1-2.58-20.89c-.33-16.74,3.78-43.67,13.91-66.62,7.51,9.25,13.75,23.23,16,37.16a37.12,37.12,0,0,1-8,29.47l0,0" transform="translate(-74.21 -69.25)"/><path class="cls-3" d="M325.55,1234.34c-5.05-5.19-11.34-12.34-17.56-20.1a61.9,61.9,0,0,0-30.91-20.8c-14.52-4.29-31.12-7.41-41.2-7.79,20.08,33.91,60.54,56.16,89.67,48.69" transform="translate(-74.21 -69.25)"/><path class="cls-3" d="M998.66,1234.34c5.05-5.19,11.35-12.34,17.57-20.1a61.82,61.82,0,0,1,30.91-20.8c14.51-4.29,31.11-7.41,41.2-7.79-20.08,33.91-60.54,56.16-89.68,48.69" transform="translate(-74.21 -69.25)"/><path class="cls-3" d="M282.34,1159.11c2.72,4.82,5.56,9.59,7.93,13.5,10.84-18.46,17.69-58.57,11.15-85.85a74.33,74.33,0,0,0-22.32,30.72,49.56,49.56,0,0,0,3.24,41.63" transform="translate(-74.21 -69.25)"/><path class="cls-3" d="M1041.87,1159.11c-2.72,4.82-5.56,9.59-7.93,13.5-10.84-18.46-17.68-58.57-11.14-85.85a74.33,74.33,0,0,1,22.32,30.72,49.53,49.53,0,0,1-3.25,41.63" transform="translate(-74.21 -69.25)"/><path class="cls-3" d="M273.85,1161.19A68.69,68.69,0,0,0,254,1137.41,145.61,145.61,0,0,0,206.49,1114c13.51,40.7,50.15,64.57,76.19,63.43-4.45-7.9-6.87-12.38-8.83-16.28" transform="translate(-74.21 -69.25)"/><path class="cls-3" d="M1050.37,1161.19a68.58,68.58,0,0,1,19.83-23.78,145.61,145.61,0,0,1,47.53-23.37c-13.51,40.7-50.16,64.57-76.19,63.43,4.45-7.9,6.86-12.38,8.83-16.28" transform="translate(-74.21 -69.25)"/><path class="cls-3" d="M261.5,1112.42c14.83-15.45,29.33-51.48,27.46-79.59h0a65.51,65.51,0,0,0-28.14,77.56c.24.69.47,1.36.71,2" transform="translate(-74.21 -69.25)"/><path class="cls-3" d="M1062.72,1112.42c-14.83-15.45-29.34-51.48-27.46-79.59h0a65.51,65.51,0,0,1,28.14,77.56c-.24.69-.47,1.36-.71,2" transform="translate(-74.21 -69.25)"/><path class="cls-3" d="M255.07,1114.81c-1.51-4.7-3.11-10.37-4.42-15.31a65.44,65.44,0,0,0-9.1-20.12c-6.39-9.49-15.27-19-33.41-30.45a124.27,124.27,0,0,0-12.68-7.12,93.09,93.09,0,0,0,8.22,28.15c9.15,20,29.92,41.72,51.39,44.85" transform="translate(-74.21 -69.25)"/><path class="cls-3" d="M1069.15,1114.81c1.51-4.7,3.11-10.37,4.41-15.31a65.91,65.91,0,0,1,9.1-20.12c6.4-9.49,15.28-19,33.42-30.45a124.27,124.27,0,0,1,12.68-7.12,92.82,92.82,0,0,1-8.23,28.15c-9.14,20-29.91,41.72-51.38,44.85" transform="translate(-74.21 -69.25)"/><path class="cls-3" d="M241.3,1048c-2.31-20.21-2.29-47.8-44.57-77.53-1.72,39.23,24.23,71,44.57,77.53" transform="translate(-74.21 -69.25)"/><path class="cls-3" d="M1082.92,1048c2.31-20.21,2.28-47.8,44.56-77.53,1.73,39.23-24.22,71-44.56,77.53" transform="translate(-74.21 -69.25)"/><path class="cls-3" d="M284.93,976.12a66.49,66.49,0,0,0-39.15,70c.06.45.12.81.15,1.05,17.1-11.17,37.7-43,39.76-71.35-.25.1-.51.21-.76.33" transform="translate(-74.21 -69.25)"/><path class="cls-3" d="M1039.29,976.12a66.5,66.5,0,0,1,39.15,70c-.07.45-.12.81-.15,1.05-17.1-11.17-37.7-43-39.77-71.35.26.1.51.21.77.33" transform="translate(-74.21 -69.25)"/><path class="cls-3" d="M242.48,979.77c13.77-5.35,41.93-30,48.26-62.14-35.45,10.59-47.6,32.9-48.26,62.14" transform="translate(-74.21 -69.25)"/><path class="cls-3" d="M1081.74,979.77c-13.78-5.35-41.93-30-48.26-62.14,35.44,10.59,47.6,32.9,48.26,62.14" transform="translate(-74.21 -69.25)"/><path class="cls-3" d="M239.91,979.93c1.73-28.64-3.39-51.92-31.88-78.69-7.35,37.31,14.86,70.84,31.88,78.69" transform="translate(-74.21 -69.25)"/><path class="cls-3" d="M1084.3,979.93c-1.73-28.64,3.4-51.92,31.89-78.69,7.36,37.31-14.86,70.84-31.89,78.69" transform="translate(-74.21 -69.25)"/><path class="cls-3" d="M266.15,847.43c-24.91,16.77-40.21,55-20.17,77,25.81-13.76,27.21-48.48,20.17-77" transform="translate(-74.21 -69.25)"/><path class="cls-3" d="M1058.07,847.43c24.91,16.77,40.2,55,20.17,77-25.81-13.76-27.21-48.48-20.17-77" transform="translate(-74.21 -69.25)"/><path class="cls-3" d="M612.1,1388.86c4.66,2.61,8.22,4.66,20.17,11.51-1.36-29.58-20.78-57.94-42-78.73A184.23,184.23,0,0,0,568.18,1303c-.72,6.75.77,19,3.85,32.36a82.68,82.68,0,0,0,40.07,53.49" transform="translate(-74.21 -69.25)"/><path class="cls-3" d="M712.11,1388.86c-4.66,2.61-8.21,4.66-20.16,11.51,1.35-29.58,20.77-57.94,42-78.73A185.08,185.08,0,0,1,756,1303c.72,6.75-.77,19-3.85,32.36a82.66,82.66,0,0,1-40.08,53.49" transform="translate(-74.21 -69.25)"/><path class="cls-3" d="M601.6,1407.74a76.93,76.93,0,0,0-65.87-6.54c-12.61,4.53-23.47,10-28.63,14.31,32.42,12.76,79.56,20.44,113.6,4-11.3-7-14.85-9.16-19.1-11.73" transform="translate(-74.21 -69.25)"/><path class="cls-3" d="M722.62,1407.74a76.91,76.91,0,0,1,65.86-6.54c12.62,4.53,23.47,10,28.64,14.31-32.41,12.76-79.57,20.44-113.6,4,11.3-7,14.84-9.16,19.1-11.73" transform="translate(-74.21 -69.25)"/><path class="cls-3" d="M662.11,1424.87l-9.09-5.44-7.57-4.49c-102.25-61.89-240-118.79-295.52-164.71,41.52,36.87,68.08,46.45,188.86,114.69,23,12.88,76.82,44.69,101.46,60.8,3.22,2.07,6.5,4.23,9.81,6.44-52.22,31.89-60.53,41.45-78.62,78.41,16.08-14.49,54.41-45,90.67-70.19,36.26,25.16,74.59,55.7,90.67,70.19-18.09-37-26.41-46.52-78.62-78.41,3.31-2.21,6.59-4.37,9.81-6.44,24.64-16.11,78.49-47.92,101.45-60.8,120.79-68.24,147.35-77.82,188.87-114.69-55.51,45.92-193.28,102.82-295.53,164.71-2.56,1.51-5.07,3-7.56,4.49-3.16,1.89-6.17,3.68-9.09,5.44" transform="translate(-74.21 -69.25)"/><path class="cls-4" d="M762.61,451.68c-10.43,30.76-15.62,48.53-33.71,68.7,11.79,9.3,18.24,24.84,20.58,31.46,6.14-2.57,19.8-7.7,27.24-5.83,4.26,1.06,8.91,2.68,11.21,6.64,1.75,3,1.9,6.77.48,11.87-1.68,6-5.48,13.16-8.37,18.06a13,13,0,0,1-2.61,3l1.4,2.35a73.8,73.8,0,0,1,5.59,11.65c26.52-21,45.18-23.75,81-30.93a5.77,5.77,0,0,0,1,1.58,6,6,0,1,0-1.32-2.51c-19.92.78-46.76-1.42-64.57-6.52.54-20.88,14.43-45.45,26.77-61.87a6,6,0,1,0-.78-.89c-17.68,10.2-43.87,20.75-64.82,18.59-2.87-19-1.69-44.78,1.8-64.88a6.35,6.35,0,1,0-.86-.43" transform="translate(-74.21 -69.25)"/><path class="cls-3" d="M101.27,105.82c0,.64,0,81.36-.06,193L194,206.15l94.05,94,94.05-94,94.06,94,94.05-94,94.06,94,94-94,94.06,94,94.06-94,94,94,94.06-94,91.66,91.58c0-110.9,0-191-.06-191.91Z" transform="translate(-74.21 -69.25)"/></g></svg>