<svg id="Discovery" xmlns="http://www.w3.org/2000/svg" viewBox="0 0 1179 1596.91"><defs><style>.cls-1{fill:#662d91;}.cls-2{fill:#fff;}</style></defs><title>lined_coat-of-arms_discovery</title><path class="cls-1" d="M1243.18,69.25H84.24a9.81,9.81,0,0,0-9.82,9.8c0,83.49-.17,676.39-.21,844.84a669.34,669.34,0,0,0,8.72,110.24c17.66,105.9,56.74,231.41,141.88,321,167.55,176.23,387.73,287.51,434.65,310.09a9.84,9.84,0,0,0,8.51,0c46.91-22.58,267.09-133.86,434.64-310.09,85.14-89.55,124.22-215.06,141.88-321a669.34,669.34,0,0,0,8.72-110.24c0-168.44-.17-761.34-.21-844.85A9.81,9.81,0,0,0,1243.18,69.25Z" transform="translate(-74.21 -69.25)"/><g id="Shield_-_Discovery" data-name="Shield - Discovery"><path class="cls-1" d="M1216.64,105.82H110.78a9.36,9.36,0,0,0-9.37,9.35c0,79.67-.16,645.41-.2,806.14a638.93,638.93,0,0,0,8.32,105.2c16.85,101,54.14,220.81,135.39,306.26,159.87,168.17,370,274.35,414.73,295.89a9.33,9.33,0,0,0,8.12,0c44.77-21.54,254.87-127.72,414.74-295.89,81.24-85.45,118.53-205.21,135.38-306.25a638.81,638.81,0,0,0,8.32-105.19c0-160.73-.16-726.48-.2-806.16A9.36,9.36,0,0,0,1216.64,105.82Z" transform="translate(-74.21 -69.25)"/><path class="cls-2" d="M676.81,1050.78l12-35.59c127.63-8.05,229.94-110.89,237.1-238.74l35-11.81-1-1-147.53,49.7L678.79,761.42h.86l4.54-.08,4.73-.07,4-.07,5.31-.08,3.37-.06,5.9-.09,3.36-.06,5.32-.08,4-.06,4.72-.08,4.55-.07,4.13-.07,5.14-.08,3.54-.06,5.73-.09,3,0,6.31-.1,2.36,0,6.91-.11,1.78,0,7.5-.12,1.18,0,7.49-.12,1.78,0,6.9-.11,2.37,0,6.31-.1,3-.05,5.72-.09,3.55-.06,5.13-.08,4.14-.06,4.55-.08,4.72-.07,4-.07,5.32-.08,3.36-.06,5.92-.09,3.35-.06,5.32-.08,4-.06,4.73-.08,4.55-.07,4.13-.07,5.14-.08,3.54-.06,5.73-.09,3,0,6.31-.1,2.37,0,6.9-.11,1.77,0,7.5-.12,1.19,0,7.49-.12,1.77,0,6.91-.11,2.37,0,6.31-.1,3,0,5.72-.09h.87l270.72-270.69c0-54.35,0-107.63,0-156.32V318.3q0-8.71,0-17.2V269.88c0-14.52,0-28.38,0-41.44q0-7.31,0-14.28h0L909.69,530l-24.38-24.38,340.25-340.21v-4.13c0-6.69,0-12.86,0-18.46v-2.39c0-3.56,0-6.88,0-9.94V115.14a9.33,9.33,0,0,0-9.33-9.32H1034.58L672.23,468.14l52.16,155.12L673.64,759.43l-1-.39.6,1.49v.1l-.6,1.49-.69-.3-1.57-1.62-3.55-3.66-5.72-5.9-3-3-6.31-6.51-2.37-2.44-6.9-7.11-1.78-1.83L633.3,722l-1.19-1.22L624.62,713l-1.78-1.83-6.9-7.11-2.37-2.44-6.32-6.51-3-3-5.73-5.91L595,682.55l-5.14-5.29L585.76,673l-4.55-4.68-4.72-4.88-4-4.07-5.31-5.48-3.36-3.46L558,644.34l-3.37-3.46-5.31-5.48-4-4.08-4.72-4.87L536,621.77l-4.14-4.26-5.13-5.3-3.55-3.65-5.72-5.9-3-3-6.31-6.5-1.62-1.67,107,40.73h0l2.37,5.2,6.9,15.2,1.78,3.9L632.11,673l1.19,2.6,7.49,16.49,1.78,3.9,6.9,15.19,2.37,5.2,6.31,13.9,3,6.49,5.72,12.59,3.55,7.81,2.26,5-2.26-110.61-3.55-173.35-.16-7.75L302.05,105.82H111a9.33,9.33,0,0,0-9.33,9.32v3.19c0,1,0,2,0,3v2.26c0,7.35,0,16.84,0,28.17V156L455.27,509.59,430.89,534,101.67,204.78c0,18,0,37.9,0,59.36v28.68q0,7.2,0,14.57v21.76q0,7.69,0,15.53c0,15.58,0,31.58,0,47.89v20.12c0,.82,0,1.65,0,2.47v10.26c0,17,0,34.15,0,51.48L377.67,753,543.59,704l129,58.68v.2l-2.26,0-3.55-.07-5.72-.11-3-.05-6.31-.12-2.37,0-6.9-.13-1.78,0-7.49-.14-1.19,0-7.49-.14-1.78,0-6.9-.13-2.37,0-6.32-.12-3-.05-5.73-.11-3.54-.07-5.14-.09-4.13-.08-4.55-.08-4.72-.09-4-.07-5.31-.1-3.36-.06-5.91-.11-3.37-.07-5.31-.09-4-.08-4.72-.09-4.55-.08-4.14-.08-5.13-.09-3.55-.07L517.5,760l-3,0-6.31-.12-2.37,0-6.91-.13-1.77,0-7.49-.14-1.18,0-7.5-.13-1.78,0-6.9-.13-2.37,0-6.31-.12-3,0-5.72-.11-3.55-.06-5.14-.1-4.13-.08-4.55-.08-4.72-.09-3.95-.07-5.33-.1-3.35-.06-5.91-.11L411,758l-5.32-.1-4-.07-4.72-.09-4.55-.08-4.13-.08-5.14-.09-.93,0,.3.3L110.39,1029.92a1.43,1.43,0,0,0,0,.22q.45,2.67.92,5.34a2.56,2.56,0,0,1,.05.27q2,11.51,4.44,23.27v0c.39,1.9.78,3.79,1.19,5.7,0,.2.08.4.13.61.36,1.72.74,3.44,1.12,5.17l.18.83c.37,1.67.74,3.35,1.12,5,.07.3.14.59.2.88q.58,2.55,1.19,5.11c0,.24.11.49.17.74q.64,2.75,1.32,5.51c0,.1,0,.2.07.29q3.64,14.92,8,30l.14.47q.78,2.73,1.59,5.47l.21.68c.52,1.77,1.06,3.54,1.6,5.31l.21.71q.84,2.71,1.69,5.43c.06.17.11.34.16.51.63,2,1.25,3.93,1.9,5.89h0q4.95,15.15,10.67,30.23c0,.11.09.22.13.32q1.07,2.8,2.16,5.59l.22.55q1.07,2.7,2.15,5.4l.24.59c.75,1.83,1.5,3.65,2.26,5.48.06.13.11.27.17.4q6.24,14.93,13.38,29.57L416,974.92l24.38,24.37-254.07,254,.69,1.18c.67,1.15,1.34,2.3,2,3.44l1.1,1.83c.67,1.12,1.34,2.24,2,3.35l1.15,1.88c.68,1.09,1.35,2.18,2,3.26.4.64.8,1.28,1.21,1.91.68,1.07,1.36,2.13,2.05,3.19l1.26,1.94c.68,1,1.37,2.08,2.06,3.12l1.32,2c.69,1,1.38,2,2.08,3l1.37,2,2.1,3c.47.67.94,1.33,1.42,2,.7,1,1.41,2,2.12,2.93l1.47,2c.71,1,1.43,1.91,2.15,2.87.5.67,1,1.34,1.51,2,.72,1,1.44,1.89,2.17,2.82l1.56,2c.73.93,1.48,1.86,2.22,2.78.52.66,1.05,1.33,1.58,2,.75.93,1.51,1.85,2.27,2.76l1.61,2,2.34,2.76,1.61,1.89c.82,1,1.65,1.88,2.47,2.82l1.56,1.77c.91,1,1.83,2,2.76,3,.44.5.89,1,1.34,1.48q2.07,2.25,4.17,4.47,4,4.23,8.07,8.4l.6.61q3.78,3.88,7.6,7.73l.84.85q3.75,3.75,7.52,7.47l.85.84c2.57,2.53,5.15,5,7.73,7.53l.61.58c2.77,2.66,5.55,5.32,8.33,8h0q4.19,3.94,8.41,7.85l.6.55q3.93,3.64,7.9,7.24l.87.78q3.87,3.51,7.77,7l.47.41,348.45-348.42L615.05,892.05l57.5-126.57-2.17,136-2.27,142.32.2-.2,350.6,350.57.08-.08q3.94-3.55,7.88-7.15l.19-.17q3.93-3.6,7.84-7.24l.21-.19q3.89-3.63,7.75-7.3l.25-.24q3.86-3.66,7.68-7.37l.27-.25q3.81-3.71,7.6-7.45l.28-.27q3.81-3.75,7.57-7.55l.25-.25q3.79-3.84,7.57-7.73l.16-.15q3.84-4,7.64-8,2.11-2.22,4.18-4.47l1.27-1.4q1.45-1.59,2.89-3.2l1.38-1.56q1.44-1.64,2.85-3.28c.4-.46.8-.91,1.19-1.37,1.3-1.53,2.59-3.06,3.87-4.61l0-.05q2-2.41,4-4.86c.27-.35.54-.7.82-1q1.53-1.92,3-3.86l1-1.29c1-1.29,2-2.6,3-3.91l.76-1q3.81-5.1,7.46-10.31l.17-.24c1.14-1.64,2.28-3.29,3.4-5l.5-.73c1.07-1.59,2.14-3.18,3.19-4.78l.31-.47q5.36-8.17,10.35-16.54l.09-.16q1.67-2.78,3.27-5.57l0,0q1.65-2.85,3.25-5.71l-244.52-244.5,24.38-24.37,236.71,236.68.27-.57c.7-1.5,1.4-3,2.09-4.49l.41-.89q1.24-2.7,2.44-5.42l.66-1.48c.58-1.32,1.16-2.64,1.73-4,.27-.63.55-1.27.82-1.91.52-1.21,1-2.43,1.55-3.64l.8-1.92c.54-1.3,1.08-2.6,1.61-3.91.22-.52.43-1,.65-1.58q1.11-2.73,2.19-5.48l.21-.56c.65-1.64,1.29-3.29,1.92-4.93.22-.59.44-1.18.67-1.77l1.42-3.78c.24-.66.48-1.31.73-2l1.35-3.72c.23-.62.45-1.23.67-1.85q.8-2.22,1.57-4.44c.13-.36.26-.72.38-1.08q1-2.77,1.9-5.53c.16-.47.31-1,.47-1.42.46-1.37.92-2.75,1.37-4.13l.63-1.91c.4-1.24.8-2.48,1.19-3.71l.63-2c.41-1.3.81-2.61,1.22-3.91l.51-1.64c.56-1.85,1.13-3.7,1.68-5.55,0,0,0-.1,0-.16.54-1.78,1.06-3.57,1.57-5.35.17-.58.34-1.16.5-1.73.37-1.28.73-2.56,1.09-3.84.18-.65.37-1.3.55-2l1-3.72.51-1.87,1.14-4.28c.11-.41.22-.82.32-1.23.49-1.83,1-3.67,1.42-5.5.11-.42.21-.83.32-1.24.35-1.42.71-2.84,1.06-4.25l.45-1.86c.3-1.23.6-2.46.89-3.68.16-.65.31-1.29.46-1.94.3-1.27.6-2.54.89-3.81l.39-1.66q1.24-5.45,2.41-10.84c.11-.55.23-1.1.35-1.65.27-1.26.53-2.52.79-3.77.13-.64.27-1.27.4-1.91.25-1.2.49-2.41.73-3.61.12-.61.25-1.21.37-1.81.27-1.36.53-2.71.8-4.06.08-.43.16-.86.25-1.29q.51-2.67,1-5.32c.06-.36.13-.72.19-1.08.27-1.41.52-2.81.78-4.21.1-.58.2-1.17.31-1.75.16-.94.33-1.87.49-2.8q1-6,2-12.06L961.35,765.06C959.77,921.52,833.13,1048.56,676.81,1050.78Zm-292.64-301c6.32-149,126.07-269.11,274.92-276l-10.62,35.95C527.47,521.16,431,618,420.06,739.16Zm45.21-13.33-6.76,2C433.83,619.22,528.69,524,647.71,512.22l-2,6.8C531.89,531.55,441.34,622.44,429.38,736.41Zm231.2,314.16C508,1044.26,385.64,919.05,383.93,765.38l35.55,12C426.93,902.58,525.7,1003.64,650,1014.7Zm-13.35-45.19,2,6.76C527,1000.79,429.84,901.42,422,778.18l6.69,2.25C437.48,898.35,530.25,993.26,647.23,1005.38Zm24.13-240.29-1,1-3.55,3.55-5.72,5.72-3,3-6.31,6.31L649.47,787l-6.9,6.91-1.78,1.77-7.49,7.49-1.19,1.19-7.49,7.49-1.78,1.78-6.9,6.9-2.37,2.37-6.32,6.31-3,3-5.73,5.72L595,841.41l-5.14,5.13-4.13,4.14-4.55,4.54L576.49,860l-4,3.95-5.31,5.32-3.36,3.36L558,878.49l-3.37,3.36-5.31,5.32-4,4-4.72,4.73L536,900.39l-4.14,4.14-5.13,5.13-3.55,3.55-5.72,5.72-3,3-6.31,6.31-1.62,1.62L538.33,815l112.31-43.41L672,763.7Zm245.27,14.47,6.7-2.26c-7.55,125.8-108.12,226.93-233.7,235.36l2.25-6.71C812.06,996.55,908.11,900,916.63,779.56ZM675.32,473.43C828.48,474.83,953.54,596.05,961,747.7l-36-10.61c-12.14-123.35-113-221-237.78-228.15Zm15,44.75-2.26-6.7C810.85,519,910.05,615,922.48,736.33l-6.81-2C902.49,618.29,807.78,526.62,690.37,518.18ZM679.65,756.56l4.54-4.72,4.73-4.91,4-4.1,5.31-5.52,3.37-3.49,5.9-6.14,3.36-3.49,5.32-5.52,4-4.1,4.72-4.91,4.55-4.72,4.13-4.3,5.14-5.33,3.54-3.68,5.73-6,3-3.06,6.31-6.56,2.36-2.45,6.91-7.18,1.78-1.84,7.5-7.79,1.18-1.22,7.49-7.78,1.78-1.85,6.9-7.17,2.37-2.45,6.31-6.56,3-3.07,5.72-6,3.55-3.67,5.13-5.34,4.14-4.3,4.55-4.71,4.72-4.91,4-4.1,2.2-2.28-30,107.63-125.9,58.39-3.1,1.41-3.44,1.56-.19-.1Zm-4.92,6.05.79.8,4.13,4.22,4.54,4.63,4.73,4.83,4,4,5.31,5.42,3.37,3.43,5.9,6,3.36,3.42,5.32,5.43,4,4,4.72,4.82,4.55,4.63,4.13,4.22,5.14,5.24,3.54,3.62,5.73,5.84,3,3,6.31,6.44,2.36,2.41,6.91,7,1.78,1.81,7.5,7.65,1.18,1.2,7.49,7.64,1.78,1.81,6.9,7.05,2.37,2.41,6.31,6.44,3,3,5.72,5.84,3.55,3.62,5.13,5.24,4.14,4.22,4.55,4.63,4.72,4.82,4,4,2.2,2.24L724.89,895.13,684.34,789.47l-10-26.76Z" transform="translate(-74.21 -69.25)"/><path class="cls-2" d="M636.54,399.7a20.43,20.43,0,0,1,2.23-6.14q5.16-2.43,9.22-9.23t4.07-13q0-5.54-6.86-7.57a14.85,14.85,0,0,1,6.9-3.94q-1.4-7-4.55-10.46a10.41,10.41,0,0,0-8.1-3.49,13.14,13.14,0,0,0-4.7.94,24.2,24.2,0,0,0-5.23,2.85,21,21,0,0,1,2.75-9.47,23.58,23.58,0,0,1,4.75-1.85,18.09,18.09,0,0,1,4.55-.61q8,0,13.68,6.65a23.9,23.9,0,0,1,5.66,16.05q0,7-4.25,16a53.12,53.12,0,0,1-10.51,15.17,36.9,36.9,0,0,1,6.94-.71,40.41,40.41,0,0,1,13.2,2.15V371.18q0-13.47,3-21.13a26.5,26.5,0,0,1,10-12.52q6.9,4.38,12.72,4.39a16.66,16.66,0,0,0,7.58-1.74,28.4,28.4,0,0,1-1.88,8.39,26.08,26.08,0,0,1-4.18,1.08A100.12,100.12,0,0,0,690.66,373q0,10.59,2.84,16.33a75.7,75.7,0,0,0,6.7-4.94l1.51,2a73.59,73.59,0,0,0-11.32,13.24q-8.1-6.66-8.1-24.19a119,119,0,0,1,2.59-25.86,22.93,22.93,0,0,1-7.54-3.23,18.39,18.39,0,0,0-6.6,9.45q-2,6-2,16.81v21.24a16.06,16.06,0,0,0-5.23,5.78,38.67,38.67,0,0,0-13.4-2.71A32.57,32.57,0,0,0,636.54,399.7Z" transform="translate(-74.21 -69.25)"/><path class="cls-2" d="M638.34,1184.51a27.84,27.84,0,0,1,5.88-9.9,28.44,28.44,0,0,1,7.93-1.14,44.78,44.78,0,0,1,19.24,4.56q4.65-3.46,4.65-7.43,0-5.32-7.23-9.11t-17.39-3.78a27.6,27.6,0,0,0-5.92.68,68.84,68.84,0,0,1,14.36-16.18q-6.57-1.65-9.12-3.85a7.81,7.81,0,0,1-2.55-6.23,19.52,19.52,0,0,1,.13-2.09,64.56,64.56,0,0,1,16.55-15.32q5.79,5.34,11.62,5.33a23.73,23.73,0,0,0,5.82-.77,42.39,42.39,0,0,0,6.54-2.28,27,27,0,0,1-3.92,9.16,28.94,28.94,0,0,1-4.94,1.53,23.76,23.76,0,0,1-4.94.52q-8.19,0-15.19-6.19c-2.38,2.12-3.56,4.08-3.56,5.88q0,4.88,10.58,7.93c2.15.6,3.48,1,4,1.18l3.15,1q18.09,5.87,18.09,18.77,0,8.4-10.84,17.18l-2.54,2.1-2.14,2a52.3,52.3,0,0,0-6.59,7.52q-1.32-.45-7.47-2.69a33.24,33.24,0,0,0-11.08-1.55,30.69,30.69,0,0,0-7.24.8A19.49,19.49,0,0,0,638.34,1184.51Zm17-33.69q11.1,0,18.16,4t7,10.42a20.22,20.22,0,0,1-1.26,6.65q6.27-5.33,6.27-11.39,0-6.93-4.91-10.69T662.59,1143A60.42,60.42,0,0,0,655.34,1150.82Z" transform="translate(-74.21 -69.25)"/><path class="cls-2" d="M241.8,796.43a56.24,56.24,0,0,1-16.56-14.51,45.14,45.14,0,0,0,1.42-6.56,49.3,49.3,0,0,0,.46-6.81q0-14.07-4.47-24.44a43.44,43.44,0,0,0-5.86,6.86l-2.16-1.32c.27-.42.47-.76.6-1q6.15-10.62,11.29-14.21,3.55,4.44,6.42,14a38.65,38.65,0,0,1,16.63-14,24.79,24.79,0,0,1,11,13.09,43.37,43.37,0,0,1,16.12-13.09q13.64,8.38,13.64,26.45a34.79,34.79,0,0,1-3.95,15.77A40,40,0,0,1,275.66,790l-2.44,2a23.06,23.06,0,0,0-4.54,4.5A34.33,34.33,0,0,1,254,784.87a29.23,29.23,0,0,1-5.18,5.1l-2.12,1.64A30.39,30.39,0,0,0,241.8,796.43Zm3.75-7.3q9.36-10.08,9.37-25.08,0-15.16-9.37-21.66a41.15,41.15,0,0,0-11.81,8.78,74.25,74.25,0,0,1,1.76,16.31q0,3.35-.3,6.44a49.13,49.13,0,0,1-.94,5.92A54.54,54.54,0,0,0,245.55,789.13Zm26.52.24A35.32,35.32,0,0,0,282,764.05q0-14.88-9.49-21.54a45.42,45.42,0,0,0-10.77,7.86,32.64,32.64,0,0,1,1.59,10.81,33,33,0,0,1-4.54,16.55A42,42,0,0,0,272.07,789.37Z" transform="translate(-74.21 -69.25)"/><path class="cls-2" d="M1099.8,778a51.66,51.66,0,0,1-8.33,7.62l-1.23,1a24,24,0,0,0-5.58,5.38c-.88.18-1.76.34-2.63.44a23.1,23.1,0,0,1-2.6.16q-12.81,0-21.76-7.86a31.68,31.68,0,0,1-10.59-20.5,36.85,36.85,0,0,0-10.06,2.68,27.75,27.75,0,0,1,3-6.42,46.36,46.36,0,0,1,5.55-.76l1.48-.12a50.07,50.07,0,0,1,2.39-14.36q5.19-6.51,15.31-12.12v-7l4.35-2.43a87.18,87.18,0,0,0-1.87,17.39v6.57q3.3-11.68,10.75-17.38a15.62,15.62,0,0,0,8.88,3,14.65,14.65,0,0,0,4.46-.76,28.15,28.15,0,0,0,5.14-2.27q-.72,6.33-4,10a25,25,0,0,1-3.5,1,14,14,0,0,1-3,.36,15.09,15.09,0,0,1-8.72-2.67,25.23,25.23,0,0,0-10,18.86l11.43-.24,11.54.24a14.43,14.43,0,0,1,2.23,7.58,107.07,107.07,0,0,0-25.2-3.07v18.19a24,24,0,0,0,13.34,4.14,18,18,0,0,0,8.29-2.17,35.17,35.17,0,0,0,8.56-6.52Zm-35-20.06v-22q-9.16,8.37-9.17,22.77c1.22-.11,2.81-.22,4.75-.36C1061.9,758.22,1063.37,758.09,1064.78,757.93Zm0,21.1V762.44c-3.37.16-6.34.43-8.89.8Q1057.09,771.61,1064.78,779Z" transform="translate(-74.21 -69.25)"/></g></svg>