<svg id="Harmony" xmlns="http://www.w3.org/2000/svg" viewBox="0 0 1179 1596.91"><defs><style>.cls-1{fill:#00a352;}.cls-2{fill:#24974f;}.cls-3,.cls-5{fill:#fff;}.cls-4{fill:#89c765;}.cls-5{fill-rule:evenodd;}</style></defs><title>lined_coat-of-arms_harmony</title><path class="cls-1" d="M1243.18,69.25H84.24a9.81,9.81,0,0,0-9.82,9.8c0,83.49-.17,676.39-.21,844.84a669.34,669.34,0,0,0,8.72,110.24c17.66,105.9,56.74,231.41,141.88,321,167.55,176.23,387.73,287.51,434.65,310.09a9.84,9.84,0,0,0,8.51,0c46.91-22.58,267.09-133.86,434.64-310.09,85.14-89.55,124.22-215.06,141.88-321a669.34,669.34,0,0,0,8.72-110.24c0-168.44-.17-761.34-.21-844.85A9.81,9.81,0,0,0,1243.18,69.25Z" transform="translate(-74.21 -69.25)"/><g id="Shield_-_Harmony" data-name="Shield - Harmony"><path class="cls-2" d="M1216.63,105.82H110.76a9,9,0,0,0-1.88.19h0l-.13,0q-.42.09-.81.21l-.56.21-.22.08-.08,0,0,0a8.55,8.55,0,0,0-1,.54l-.19.11a8.36,8.36,0,0,0-1,.69,1.54,1.54,0,0,0-.19.17c-.16.14-.32.28-.47.43a5.49,5.49,0,0,0-.4.43l-.21.23c-.12.15-.24.31-.35.47s-.13.16-.19.25-.2.32-.29.48l-.13.21,0,.07a2.92,2.92,0,0,0-.17.36c-.06.12-.13.24-.18.36l0,.1a9.94,9.94,0,0,0-.54,1.73v0a9,9,0,0,0-.19,1.88c0,82-.18,681.05-.21,820a480.62,480.62,0,0,0,4.49,66.31c14.73,105.73,51.19,238.73,139.38,331.38C405.16,1501,615.53,1607.18,660.3,1628.7c.29.14.58.26.88.37s.33.1.49.15l.37.11.68.14h.06l.1,0,.78.09h0a9.11,9.11,0,0,0,3.48-.9C712,1607.15,922.3,1501,1082.35,1332.8c81.33-85.45,118.66-205.21,135.53-306.26a637.85,637.85,0,0,0,8.33-105.2c0-160.73-.16-726.49-.2-806.17A9.36,9.36,0,0,0,1216.63,105.82Z" transform="translate(-74.21 -69.25)"/><path class="cls-3" d="M961.31,1257.53a129.21,129.21,0,0,0,66.55-27.49l-66.55-66.81Z" transform="translate(-74.21 -69.25)"/><path class="cls-3" d="M1048.64,1209.09c27.48-33.22,38.52-85.07,18.34-132.73-21-49.52-66.46-75.31-105.77-78.9v2q0,60,0,120a4.31,4.31,0,0,0,1.37,3.36q42.47,42.54,84.89,85.15c.39.39.79.77,1.2,1.15" transform="translate(-74.21 -69.25)"/><path class="cls-3" d="M1224.77,913.12V899.65c0-53.75,0-136.27,0-228.13H827.81c.49,5.22.8,10.48.8,15.83a166.14,166.14,0,0,1-8,51c30.33,3.09,71.51,5.1,99.84.24a28.57,28.57,0,1,1,43.89,26l111.53,267.86a158.66,158.66,0,0,1,31.19,95c-.24,88.42-71.17,159.59-159.15,159.68-87.82.11-159.45-71.78-159.21-159.79a160.17,160.17,0,0,1,31.68-95.58L932,763.6a28.78,28.78,0,0,1-7.26-7.74c-31.84,6.09-63.67,5-95.51,1.39,0,0-11.61-.16-16-.22-26.23,56.73-83.46,96.1-149.89,96.1h-.19v776.35a9.19,9.19,0,0,0,2.72,0l.15,0a10.08,10.08,0,0,0,1.09-.24l.29-.09a9.44,9.44,0,0,0,1.21-.47l.67-.32.16-.08.86-.42.32-.15.95-.47.22-.1,0,0,.87-.42.31-.16.11,0,1.08-.53.26-.13,1-.5.4-.19,1.41-.7h0l2.1-1.05.39-.19,2.24-1.12.1,0,.32-.16,1.24-.63.63-.32,1.13-.57.58-.29,1.18-.6.47-.24.27-.14,1.14-.58.17-.09.42-.21,1.28-.65.36-.19.41-.21,1.16-.59.85-.44,1.16-.6.93-.48,1.09-.56.47-.25.58-.3,1-.52.6-.32.42-.22,1.17-.61.38-.2.64-.33,1.19-.63.14-.07.93-.49,1.13-.6,1.05-.55,0,0,1.28-.68.22-.11.86-.46,1.25-.67.54-.28.59-.32,1.21-.64.78-.42.41-.22,1.23-.66.81-.43c.14-.08.28-.16.43-.23l1.28-.69,1.24-.67,1.32-.71c.4-.23.81-.45,1.22-.67l1.26-.68,1.32-.72,1.45-.79.53-.29.65-.36,1.41-.77,1.32-.73,1.27-.7,1.44-.79,1.38-.76,1.4-.78,1.22-.68,1.3-.72.26-.15,1.44-.8,1.33-.74.06,0,1.95-1.09.93-.53,5.89-3.32,1-.58.09,0,1.91-1.09.81-.46.5-.28,1.73-1,1.59-.91,1.46-.84,1.21-.7.24-.14,1.67-1,1.54-.9,1.57-.91,1.73-1,1.47-.86,1.59-.93,1.63-1,.35-.2,1.32-.78,1.56-.92,1.62-1,1.64-1,1.69-1,1.62-1,1.07-.64.6-.36,1.69-1,.27-.15,1.44-.87,1.68-1,1.64-1,1.74-1,1.18-.72.5-.3,1.73-1,.92-.57.8-.48,1.73-1.06,1-.61c.24-.16.49-.31.74-.46l1.79-1.1,1.74-1.07,1.77-1.1.56-.35,1.2-.74,1.78-1.11,1.8-1.12,1.8-1.12.94-.6.8-.5,1.8-1.13,1.8-1.14,1.88-1.19.31-.19,1.46-.93,1.73-1.1,1.85-1.18,0,0,1.85-1.19,1.88-1.2,1.82-1.18,1.84-1.18c.64-.41,1.28-.82,1.91-1.24l1.83-1.18,1.94-1.27,1.78-1.15,2.07-1.36.26-.17,1.44-.94,2.2-1.46.25-.16,1.62-1.07.88-.58,2.55-1.7,1.78-1.18,2.06-1.37,2-1.34,1.83-1.23,1.95-1.31,1.92-1.3,1.86-1.27c.68-.45,1.35-.91,2-1.37l1.67-1.14.19-.13,2-1.37,1.42-1,.47-.32,2-1.39c.6-.41,1.2-.82,1.79-1.24l.09-.05,2.06-1.43,1.14-.8.75-.52,2-1.41,1.93-1.35,2-1.4,1.95-1.37,2-1.44,2-1.41,2-1.41.41-.3,1.54-1.1,2-1.46,1.11-.79.84-.61,2-1.46,2-1.43c.67-.49,1.35-1,2-1.47l2-1.43,2-1.49,2-1.45,2-1.48,2.06-1.51c.67-.51,1.35-1,2-1.51l1.73-1.29.2-.15,2.1-1.56,2-1.47,2.07-1.55,2-1.5,2.11-1.6,1.93-1.46,2-1.53,2.07-1.58,2.07-1.59,2-1.52,2.14-1.66,1-.81.87-.67L946,1455l2-1.52,2.2-1.74c.63-.49,1.25-1,1.87-1.47l2.12-1.67,1.86-1.48.06,0,2.63-2.1.26-.2,1.19-1,3.23-2.6.91-.73q2-1.6,4-3.24l1.64-1.33,2.42-2,1.93-1.59,2.15-1.77,1.8-1.49,2.28-1.89,1.83-1.53,2.24-1.87,2-1.65,2.1-1.78,1.91-1.62,2.15-1.83,1.92-1.64,2.15-1.85,1.92-1.66,2.12-1.82.54-.48,1.41-1.22,2.11-1.85,1.92-1.68,2.11-1.86,1.94-1.72,2.1-1.87,1.95-1.73,2.1-1.89.83-.74,1.09-1L1021,1392l1.94-1.76,2.06-1.88,2-1.8,2-1.88,1.26-1.18c.23-.2.45-.41.67-.62L1033,1381l.88-.83,1-1,2.07-2c.64-.59,1.27-1.19,1.9-1.79l2.08-2,.33-.32c.52-.49,1-1,1.55-1.48l2.09-2,.53-.51,1.33-1.27,2.09-2,1.38-1.33.47-.47c.7-.67,1.39-1.35,2.08-2l1.84-1.8,2.09-2.06.63-.62,1.2-1.19,2.08-2.06,1.82-1.83c.69-.69,1.38-1.39,2.08-2.08s1.19-1.21,1.79-1.82,1.43-1.44,2.14-2.17l1.71-1.74c.77-.79,1.54-1.59,2.32-2.38l1.17-1.21.35-.36,2.56-2.66,1.27-1.32q1.9-2,3.8-4c1.25-1.31,2.49-2.64,3.71-4l.12-.13c.37-.4.73-.81,1.1-1.22.82-.89,1.63-1.78,2.44-2.68l1.41-1.61,2.17-2.46.49-.57,1-1.2c.68-.78,1.35-1.56,2-2.35l1-1.23.54-.64,1.91-2.29.43-.54,1.1-1.36c.63-.77,1.25-1.53,1.87-2.31l1-1.32.49-.63c.61-.76,1.21-1.52,1.81-2.29l1-1.34c.16-.22.34-.44.51-.66.58-.76,1.17-1.52,1.75-2.29l.62-.83.9-1.2,1.71-2.3.75-1,.76-1,1.66-2.29.55-.78.93-1.31,1.63-2.31,1.47-2.12c.53-.78,1.07-1.55,1.59-2.33l.75-1.11.7-1,1.56-2.33c.11-.18.23-.36.35-.54l1.06-1.61,1.53-2.36.6-.93.8-1.25,1.49-2.35,1.22-2,.15-.25,1.47-2.38,1.32-2.17,0,0,1.44-2.4.24-.41c.35-.6.71-1.2,1.07-1.8l1.42-2.43.31-.54c.33-.56.65-1.12,1-1.68.47-.81.93-1.62,1.39-2.44l.69-1.22c.19-.34.38-.68.58-1l1.36-2.45c.18-.34.37-.68.56-1l.67-1.23c.45-.82.9-1.64,1.34-2.46s.81-1.51,1.21-2.27l1.31-2.47c.4-.75.79-1.51,1.19-2.28s.86-1.66,1.28-2.49l.84-1.65c.11-.21.22-.42.32-.63.43-.83.84-1.67,1.26-2.5.33-.67.67-1.34,1-2,0-.1.09-.19.13-.28.42-.84.83-1.68,1.24-2.52l.48-1,.63-1.29,1.21-2.53,1.08-2.3c.4-.85.8-1.71,1.19-2.56l1.06-2.29,1.17-2.58,1-2.28,1.15-2.62.85-1.93a3.45,3.45,0,0,0,.14-.34c.39-.87.76-1.75,1.14-2.63s.65-1.51,1-2.26.75-1.79,1.12-2.69c.24-.56.47-1.11.7-1.67.08-.19.16-.37.23-.55.38-.91.75-1.83,1.12-2.74l.48-1.17c.13-.34.27-.68.41-1,.37-.92.74-1.85,1.1-2.77l.57-1.43c.1-.24.2-.48.29-.73.39-1,.77-2,1.15-3,.26-.67.52-1.33.77-2,.41-1.07.82-2.15,1.22-3.23.17-.43.33-.86.49-1.29.06-.14.11-.28.16-.42.47-1.26.94-2.52,1.4-3.79.06-.15.11-.3.17-.46s.18-.47.26-.71c.61-1.66,1.2-3.32,1.79-5l.36-1c.46-1.32.93-2.63,1.38-4,.21-.59.4-1.17.61-1.76.36-1.07.73-2.14,1.09-3.22l.6-1.77a2.41,2.41,0,0,1,.08-.25c.32-1,.65-2,1-3l.42-1.3.27-.83.93-2.86c.23-.72.46-1.44.68-2.17.3-.93.6-1.87.89-2.81l.48-1.54.21-.69.84-2.74c.14-.45.27-.9.41-1.35l.27-.91c.28-.91.55-1.82.82-2.73l.33-1.14c.12-.4.24-.79.35-1.19.26-.88.52-1.76.77-2.64s.44-1.54.66-2.31.51-1.77.76-2.66.43-1.55.65-2.32.48-1.76.73-2.64l.57-2.11a1.94,1.94,0,0,1,0-.2l.72-2.66c.18-.67.35-1.35.53-2l.08-.29.69-2.65c.09-.33.17-.66.25-1s.23-.9.35-1.35l.67-2.62.45-1.8.12-.51c.22-.87.44-1.74.65-2.61.09-.35.17-.71.26-1.06s.21-.84.31-1.26c.21-.87.41-1.73.62-2.59.09-.35.17-.71.25-1.06l.3-1.27c.21-.86.41-1.72.61-2.59l.54-2.33c.2-.87.39-1.73.59-2.58.07-.34.15-.68.22-1s.2-.86.29-1.28l.57-2.57c.1-.48.21-1,.31-1.43.07-.29.13-.59.19-.88.19-.86.38-1.72.56-2.58l.48-2.27.54-2.59c.16-.75.31-1.5.47-2.25s.35-1.72.52-2.57c.06-.29.11-.58.17-.87.09-.46.19-.92.28-1.38l.51-2.6c.07-.35.14-.7.2-1s.16-.78.23-1.18c.17-.85.33-1.7.49-2.55l.12-.61.3-1.61c.16-.85.32-1.71.47-2.56l.24-1.29c.06-.3.11-.6.16-.9.16-.85.31-1.7.46-2.56l.39-2.17.24-1.35h0q.9-5.23,1.73-10.48c.06-.42.13-.84.19-1.25q.81-5.16,1.51-10.32c.07-.44.12-.87.18-1.31.47-3.46.92-6.93,1.34-10.39,0,0,0-.09,0-.14q.63-5.21,1.15-10.43l.18-1.7c.34-3.43.66-6.87,1-10.3l.06-.82c.28-3.28.52-6.55.74-9.84,0-.48.07-1,.1-1.44q.33-5.07.59-10.14c0-.61,0-1.21.08-1.81.16-3.44.31-6.89.42-10.33,0-.12,0-.24,0-.35,0-1.1.06-2.2.08-3.3,0-.63,0-1.27,0-1.9,0-.85.05-1.7.06-2.55,0-.12,0-.23,0-.34,0-.92,0-1.83,0-2.74,0-1.33,0-2.66,0-4,0-1,0-1.95,0-2.92,0-1.31,0-2.61,0-3.91Z" transform="translate(-74.21 -69.25)"/><path class="cls-3" d="M947.89,769.2a28.46,28.46,0,0,1-6.44-.79L842,1007.32a158.59,158.59,0,0,1,210.15.35L952.63,768.73a29.74,29.74,0,0,1-4.74.47" transform="translate(-74.21 -69.25)"/><path class="cls-3" d="M932.53,999.06v-1.63c-42.76,4.13-89,33-108,84.72-17.37,47.06-5,96.32,20.66,126.91.3-.28.6-.55.89-.84q42.76-42.92,85.49-85.86a3.7,3.7,0,0,0,1-2.39q.07-60.45,0-120.91" transform="translate(-74.21 -69.25)"/><path class="cls-3" d="M932.43,1257.52v-94.73q-33.31,33.46-66.79,67.06a129.5,129.5,0,0,0,66.79,27.67" transform="translate(-74.21 -69.25)"/><path class="cls-4" d="M293.63,562.6c0,.5,0,1,0,1.5h.06c0-.5,0-1,0-1.5" transform="translate(-74.21 -69.25)"/><path class="cls-5" d="M662.23,550.27c-75.89,0-137.43,61.75-137.43,137.9s61.54,138,137.43,138,137.42-61.75,137.42-138-61.54-137.9-137.42-137.9m112.51,96.25-7.52.3v4.84h-.82l-2.18-2-11.84-3.3v-7.76l-15.1.59L732.45,641h-6l-2.87.38L716.35,646v7.6l-14.83,10.6,1.2,4.45h3l-.81,4.51-2.06.86-.16,11.62,12.83,14.91h5.58l.32-2.12h10l2.87-2.13H740l3.19,3.29,8.45.92-1.12,11.3L760,728.48l-5,9.53.14,4.47,3.67,3.85v10.8L763,764v6.79c-23.31,30-60.21,49.12-101.58,49.12-67.92,0-123.1-51.84-129.88-118.22-.07-1.05.46-2.09.46-3.13v-.07c-2.11-3.37-2.11-6.8-2.11-10.33V680.9c2.11-.88.65-1.69.74-2.49l-.18-.64c1.12-14.71,5.79-28.71,10-41.75v7.2l6.36,2.72v10.64l5.49,9.12,4.39.64.59-3.12-5.08-8-1-7.79h3l1.28,8,7.41,10.85L561,669.83l4.24,7.22,11.25,3v-1.93l5.09.73-.17,3.35,3.79.65,5.71,1.6,8.08,9.11,10.22.81,1,8.39-7,4.88-.32,7.52-1,4.56L612,732.41l.8,4.4a24.69,24.69,0,0,0,3.11,1c.4,0,7.18,6,7.18,6v23l3.82.8-1.4,10.63,5,6.25L629.73,795,636,805.84l7.93,7,8,.08.8-2.56-5.9-5,.41-2.4,1-3,.24-3-4-.16-2-2.47,3.27-3.21.47-2.39-3.67-1,.16-2.25,5.27-.79,8-3.85,2.64-5L667,765.05l-1.91-8.4,2.62-4.4,7.65.15,5.19-4.07,1.67-16.16,5.74-7.36,1-4.64-5.19-1.68-3.5-5.75-11.8-.08-9.33-3.61-.47-6.72-3.11-5.44-8.45-.16-4.87-7.67L637.83,687l-.23,2.32-7.9.49-2.87-4.09L618.54,684l-6.77,7.92-10.68-1.83-.8-12.08-7.81-1.37,3.19-5.92-1-3.43-10.2,6.88-6.46-.72-2.31-5.12,1.43-5.2,3.51-6.94,8.21-4.54H604v5.56l6,2.64-.32-8.24,4.23-4.16,8.25-5.44.66-3.84,8.22-8.56,8.77-4.88-.8-.63,6-5.6,2.15.55,1,1.28,2.32-2.48.56-.32-2.25-.31-2.33-.81v-2.48l1.13-1,2.84-.08,1.22.63.47,2.33.7-.16v-.25l1.1.17,4.41-.65.65-2.07,2.32.63v2.17l-2,1.52-.44,2.39,6.66,2.32v.08l2.59-.16.5-3.19-5.69-2.72-.22-1.6,4.92-1.61.27-4.72-5.09-3.12-.31-7.78-7,3.58H652.9l.63-6.22L644,592.09l-3.9,2.89v9.21l-7.1,2.23-2.69,5.92-2.93.57v-7.68l-6.79-.88-3.43-2.25-1.41-4.87,11.94-7,5.81-1.76.55,3.91,3.27-.16.24-2,3.42-.48L641,589l-1.51-.56-.32-2.09,4.22-.39,2.55-2.42.09.07h.08l.71-1,8.85-1.24,3.83,3.22-10.21,5.5,13,2.57,1.67-4.78h5.66l2.05-3.39-4.08-.52v-4.79l-12.5-5.6-8.68,1-4.94,2.56.32,6.31-5.09-.79-.8-3.44,4.94-4.48-8.92-.48-2.56.79-1.11,3,3.35.64-.72,3.28-5.66.39-.88,2.25-8.21.16s-.24-4.64-.56-4.64l6.46-.16,4.86-4.81-2.63-1.35-3.59,3.52-5.89-.87-3.59-5.52h-7.58l-7.88,6.38H603l.63,2.48-1.83,1.93,8,.32,1.28,2.91-9.09-.29-.4-2.23-5.66-1.26-3-1.73H588c21-14.89,46.56-22.9,74-22.9a130.45,130.45,0,0,1,88.32,34.27l-4.86,1.93-2.63,2.81.64,3.28,3.19.48,1.91,4.8,5.5-1.81.88,6.91h-1.6l-4.54-1.07-5,.59L739,615.41l-6.93,1.06-1,5.9,2.95.71-.87,3.83-6.86-1.44-6.37,1.44-1.28,3.51,1,7.36,3.75,1.76,6.22-.08,4.15-.32,1.35-3.36,6.54-8.56,4.3.88,4.23-3.84.79,3,10.45,7.12-1.28,1.76-4.71-.32,1.84,2.65,2.87.63,3.42-1.44-.07-4.16,1.52-.71-1.21-1.29-7-4.15L755,621.88h5.82l1.83,2.07,5,4.44.23,5.25,5.18,5.63,1.91-7.58,3.59-2,.64,6.87,3.51,4.46h1.43c1.44,2.13,2.79,6.38,3.91,10.64H782Z" transform="translate(-74.21 -69.25)"/><polygon class="cls-5" points="647.88 536.85 650.67 532.29 654.41 531.41 657.12 532.61 656.88 535.65 651.06 539.73 647.88 539.73 647.88 536.85"/><polygon class="cls-5" points="655.45 528.06 656.73 526.05 661.35 525.1 662.46 530.78 664.94 534.7 666.53 536.62 669.49 537.74 666.69 541.1 661.27 541.65 657.21 541.65 657.68 536.77 661.03 536.06 660.79 533.82 657.6 531.82 655.45 530.3 655.45 528.06"/><path class="cls-3" d="M300.09,1097.07a25.56,25.56,0,1,0,25.48,25.56,25.52,25.52,0,0,0-25.48-25.56" transform="translate(-74.21 -69.25)"/><path class="cls-3" d="M526.52,1059.69a160.7,160.7,0,0,0-20.95-33L396.45,764.6a28.72,28.72,0,0,0,8.68-8.74c30.35,5.8,76,4.32,106.39,1.13,0-.2,1.21-2.3,1.37-2.74A166.2,166.2,0,0,1,507,738.69c-29,2.9-69.51,4.74-97.51-.06a28.57,28.57,0,1,0-45.29,25l-117.4,282a159.18,159.18,0,0,0-22.25,67,163.41,163.41,0,0,0-1.21,19.52c0,89.08,71.69,161.29,160.12,161.29s160.12-72.21,160.12-161.29a161.61,161.61,0,0,0-17-72.39m-35.4,68.69a25.52,25.52,0,0,1-25.47,25.56h0a25.56,25.56,0,0,1,0-51.12h0a25.52,25.52,0,0,1,25.47,25.56m-116.54-360a28.53,28.53,0,0,0,6.44.79,27.5,27.5,0,0,0,4.74-.48l98.49,236.55a158.71,158.71,0,0,0-211.54,7.79Zm8.85,519.22c-85.14,0-154.41-69.78-154.41-155.55a156,156,0,0,1,8.7-51.42,79.47,79.47,0,0,1,145.08,42h.14c0,1.06-.07,2.12-.07,3.19,0,.86,0,1.71.05,2.56h0a79.5,79.5,0,0,0,153.2,26.86c-11.14,74.83-75.36,132.39-152.7,132.39" transform="translate(-74.21 -69.25)"/><path class="cls-3" d="M96.63,671.52H495c8.19-81.72,76-146.08,159.66-149.8V105.82H96.79C96.77,107.1,96.69,423.38,96.63,671.52Z" transform="translate(-74.21 -69.25)"/><rect class="cls-1" x="0.18" y="36.57" width="1178.65" height="165.46"/></g></svg>