<svg id="Legacy" xmlns="http://www.w3.org/2000/svg" xmlns:xlink="http://www.w3.org/1999/xlink" viewBox="0 0 1179 1596.91"><defs><style>.cls-1{fill:#f9a01b;}.cls-2{fill:none;}.cls-3{clip-path:url(#clip-path);}.cls-4{fill:#f36f21;}.cls-5{clip-path:url(#clip-path-2);}.cls-6{fill:#fff;}</style><clipPath id="clip-path" transform="translate(-74.21 -69.25)"><path class="cls-1" d="M1216.64,105.82H110.78a9.35,9.35,0,0,0-9.36,9.35c0,91.67-.2,826.87-.21,848.16,0,.32,0,.63.05.95,11.09,110,44.9,264.62,143.66,368.49,159.87,168.17,370,274.35,414.73,295.89a9.33,9.33,0,0,0,8.12,0c44.77-21.54,254.86-127.72,414.73-295.89,98.76-103.87,132.57-258.45,143.66-368.48,0-.32,0-.63,0-.95,0-21.28-.17-756.48-.21-848.17A9.35,9.35,0,0,0,1216.64,105.82Z"/></clipPath><clipPath id="clip-path-2" transform="translate(-74.21 -69.25)"><rect class="cls-2" x="267.95" y="842.61" width="793.54" height="856.15"/></clipPath></defs><title>lined_coat-of-arms_legacy</title><g id="Shield_-_Legacy" data-name="Shield - Legacy"><path class="cls-1" d="M1243.18,69.25H84.24a9.81,9.81,0,0,0-9.82,9.8c0,83.49-.17,676.39-.21,844.84a669.34,669.34,0,0,0,8.72,110.24c17.66,105.9,56.74,231.41,141.88,321,167.55,176.23,387.73,287.51,434.65,310.09a9.84,9.84,0,0,0,8.51,0c46.91-22.58,267.09-133.86,434.64-310.09,85.14-89.55,124.22-215.06,141.88-321a669.34,669.34,0,0,0,8.72-110.24c0-168.44-.17-761.34-.21-844.85A9.81,9.81,0,0,0,1243.18,69.25Z" transform="translate(-74.21 -69.25)"/><path class="cls-1" d="M1216.64,105.82H110.78a9.35,9.35,0,0,0-9.36,9.35c0,91.67-.2,826.87-.21,848.16,0,.32,0,.63.05.95,11.09,110,44.9,264.62,143.66,368.49,159.87,168.17,370,274.35,414.73,295.89a9.33,9.33,0,0,0,8.12,0c44.77-21.54,254.86-127.72,414.73-295.89,98.76-103.87,132.57-258.45,143.66-368.48,0-.32,0-.63,0-.95,0-21.28-.17-756.48-.21-848.17A9.35,9.35,0,0,0,1216.64,105.82Z" transform="translate(-74.21 -69.25)"/><g class="cls-3"><path class="cls-4" d="M102.67,115.17c0,70.93-.13,527.07-.18,739.75L662.05,687.2a9.28,9.28,0,0,1,5.35,0l560,166c0-213.44-.15-667.29-.19-738a9.34,9.34,0,0,0-9.35-9.34H112A9.36,9.36,0,0,0,102.67,115.17Z" transform="translate(-74.21 -69.25)"/><g class="cls-5"><path class="cls-4" d="M499.08,981.44c-8.44,13-2.44,31.66-2.44,31.66s19.69-2.51,28.14-15.55,2.43-31.64,2.43-31.64-19.69,2.5-28.13,15.53" transform="translate(-74.21 -69.25)"/><path class="cls-4" d="M464.36,880.74c-8.44,13-2.44,31.65-2.44,31.65s19.7-2.51,28.14-15.54,2.43-31.64,2.43-31.64-19.69,2.5-28.13,15.53" transform="translate(-74.21 -69.25)"/><path class="cls-4" d="M537,1199.91c-13.55-7.83-32.24-1.26-32.24-1.26s3.25,19.27,16.8,27.1,32.24,1.26,32.24,1.26-3.26-19.27-16.8-27.1" transform="translate(-74.21 -69.25)"/><path class="cls-4" d="M867.72,912.39s6-18.62-2.44-31.65-28.13-15.54-28.13-15.54-6,18.61,2.43,31.65,28.14,15.54,28.14,15.54" transform="translate(-74.21 -69.25)"/><path class="cls-4" d="M804.86,997.55c8.44,13,28.14,15.54,28.14,15.54s6-18.62-2.43-31.65-28.15-15.54-28.15-15.54-6,18.62,2.44,31.65" transform="translate(-74.21 -69.25)"/><path class="cls-4" d="M652.6,1094.39c-13.57-7.77-32.25-1.12-32.25-1.12s3.34,19.25,16.92,27,32.24,1.13,32.24,1.13-3.33-19.26-16.91-27" transform="translate(-74.21 -69.25)"/><path class="cls-4" d="M537.22,1122.81s.54-19.52-11.24-29.75-31.41-7.28-31.41-7.28-.53,19.53,11.24,29.75,31.41,7.28,31.41,7.28" transform="translate(-74.21 -69.25)"/><path class="cls-4" d="M584.46,1024.42c-11.45,10.59-10.3,30.09-10.3,30.09s19.72,2.34,31.17-8.24,10.3-30.07,10.3-30.07-19.72-2.35-31.17,8.22" transform="translate(-74.21 -69.25)"/><path class="cls-4" d="M1010.41,1340.32s6.9-18.32-.9-31.73-27.36-16.83-27.36-16.83-6.9,18.32.9,31.73,27.36,16.83,27.36,16.83" transform="translate(-74.21 -69.25)"/><path class="cls-4" d="M453.39,1150.71c-14.23,6.56-19.3,25.44-19.3,25.44s18,8.26,32.23,1.71,19.29-25.44,19.29-25.44-18-8.26-32.22-1.71" transform="translate(-74.21 -69.25)"/><path class="cls-4" d="M320.14,1308.59c-7.81,13.41-.91,31.72-.91,31.72s19.55-3.41,27.36-16.82.91-31.73.91-31.73-19.56,3.43-27.36,16.83" transform="translate(-74.21 -69.25)"/><path class="cls-4" d="M359.15,1230.14c-13.2-8.38-32.16-2.57-32.16-2.57s2.44,19.38,15.64,27.76,32.17,2.57,32.17,2.57-2.45-19.39-15.65-27.76" transform="translate(-74.21 -69.25)"/><path class="cls-4" d="M289.72,1182.57c-11.52,10.5-10.52,30-10.52,30s19.71,2.49,31.23-8,10.51-30,10.51-30-19.7-2.48-31.22,8" transform="translate(-74.21 -69.25)"/><path class="cls-4" d="M463.66,1066.77c9.28-12.46,4.51-31.42,4.51-31.42s-19.82,1.25-29.09,13.71-4.53,31.42-4.53,31.42,19.82-1.24,29.11-13.71" transform="translate(-74.21 -69.25)"/><path class="cls-4" d="M430,927.38c-13.43-8-32.22-1.66-32.22-1.66s3,19.31,16.45,27.31,32.22,1.66,32.22,1.66-3-19.31-16.45-27.31" transform="translate(-74.21 -69.25)"/><path class="cls-4" d="M394.25,1040.13s-19-5.71-32.15,2.73-15.5,27.84-15.5,27.84,19,5.72,32.15-2.73,15.5-27.84,15.5-27.84" transform="translate(-74.21 -69.25)"/><path class="cls-4" d="M371.19,1116s-3.9,19.15,5.95,31.19,29.7,12.41,29.7,12.41,3.9-19.15-5.95-31.19-29.7-12.41-29.7-12.41" transform="translate(-74.21 -69.25)"/><path class="cls-4" d="M625.17,1211.9c9-12.66,3.81-31.51,3.81-31.51s-19.78,1.68-28.79,14.33-3.81,31.53-3.81,31.53,19.79-1.68,28.79-14.35" transform="translate(-74.21 -69.25)"/><path class="cls-4" d="M950.89,1068c13.16,8.44,32.15,2.73,32.15,2.73s-2.34-19.39-15.5-27.84-32.15-2.73-32.15-2.73,2.34,19.4,15.5,27.84" transform="translate(-74.21 -69.25)"/><path class="cls-4" d="M915.38,953c13.44-8,16.44-27.3,16.44-27.3s-18.78-6.34-32.22,1.66-16.45,27.31-16.45,27.31S901.93,961,915.38,953" transform="translate(-74.21 -69.25)"/><path class="cls-4" d="M928.76,1128.35c-9.85,12.05-6,31.2-6,31.2s19.85-.37,29.71-12.41,6-31.19,6-31.19-19.86.37-29.7,12.4" transform="translate(-74.21 -69.25)"/><path class="cls-4" d="M895.09,1080.48s4.76-19-4.52-31.42-29.1-13.71-29.1-13.71-4.77,19,4.52,31.42,29.1,13.71,29.1,13.71" transform="translate(-74.21 -69.25)"/><path class="cls-4" d="M803.66,1093.06c-11.78,10.23-11.24,29.76-11.24,29.76s19.64,2.94,31.41-7.3,11.24-29.74,11.24-29.74-19.64-3-31.41,7.28" transform="translate(-74.21 -69.25)"/><path class="cls-4" d="M876.26,1150.71c-14.23-6.55-32.23,1.71-32.23,1.71s5.06,18.88,19.29,25.44,32.23-1.71,32.23-1.71-5.07-18.88-19.29-25.44" transform="translate(-74.21 -69.25)"/><path class="cls-4" d="M1008.71,1174.55s-1,19.51,10.5,30,31.23,8,31.23,8,1-19.51-10.52-30-31.21-8-31.21-8" transform="translate(-74.21 -69.25)"/><path class="cls-4" d="M1047.51,1295.18c-1.21-.08-2.4-.18-3.6-.28,1.54.61,3.08,1.2,4.61,1.82C1048.19,1296.18,1047.84,1295.76,1047.51,1295.18Z" transform="translate(-74.21 -69.25)"/><path class="cls-4" d="M692.73,1356.5c31.48-17.41,63.4-34.09,95.82-49.75,15.58-7.54,31.27-15.07,47.35-21.53,17.2-6.91,35.05-12.31,51.66-20.59,27.67,5.11,55.31,10.42,82.85,16.13,24.4,5.06,48.58,12.06,73.5,14.14-44.48-17.51-89.92-30.28-136.08-43,28.77-22.2,53-49.18,75.23-77.55,26.09-2.86,52.43-4.34,78.43-7.89,0,0-42.59-13.26-64.66-10.94,8.44-12.21,16.28-24.82,23.65-37.68,5.22-9.09,17-54.15,17-66.19a413.16,413.16,0,0,1-29.83,57.68c-3.67-37.27-.84-78.56-13.08-114.35,1.1,3.19-2.29,106.58-.92,135.78-18.72,27.26-39.56,53.44-63,77-9.35-28.22-16.88-57-23.66-85.89-.07.9,20.45-114.24,16.26-129.11-3.28-11.65-16.33,67.11-20.18,84.11-3.45,15.17-11.48,33-10.69,48.61.81,16.09,7,33.17,10.68,48.8,3.78,16,6.62,32.8,11.85,48.37-13.9,12.37-28.2,23.24-45.39,30.8-14.89,6.55-30.49,11.36-45.68,17.2-35.94,13.83-71.66,29.33-106.61,45.45,21.25-40.74,42.61-81.41,63.4-122.37,8.28-16.32,17.18-29.56,15.33-48.26-1.59-16-5.81-31.63-7.67-47.61,10.73-9.3,19.24-22.12,28.84-32.61,9.15-10,18.57-19.89,27.11-30.42,16.63-20.51,21.39-51,29-75.6,6.53-21,16.29-89.12,16.62-102.42-8.89,26.51-15.91,53.56-25,80q-13.9,40.68-29.15,80.92c-18.16,15.65-33.4,34.35-50.81,50.73q-4.42-39.43-8.69-78.9c10.07-21.18,17.35-44.55,25.65-66.5,8-21.29,25.39-78.3,23.75-80.35-3-3.7-45.61,111.49-66.38,142.06-1.22,1.78-.38,3.88.37,5.38,2.43,34.74,5,69.47,7.59,104.2a11.64,11.64,0,0,0,.15,1.77q2.41,31.76,5.15,63.5c-.07.15-.12.23-.2.39-15.55,28.88-31.15,57.73-46.44,86.74q-11.76,22.32-23.4,44.69c-7.13,13.66-16.23,27.51-20.92,42.2h-4.11q6.65-73.2,14.08-146.33c2.38-23.66-4.34-69.21,8.36-87.94,26.48-39.07,26.48-39.07-17.46,1.57-10.75,9.94-14.18,61.52-16.64,85.47-15.42-21.43-31.12-42.59-45.24-64.89-6.47-10.22-12.9-20.5-20-30.3-3.51-4.83-7.19-9.55-11.12-14-3.61-4.15,5.26,23.06,11.29,33.11,6.22,10.37,13,20.42,19.49,30.61,14.87,23.26,28.94,47,43,70.75q-6.18,61-12.1,122h-2.27c-5.94-14.67-14.85-28.7-22.22-42.73q-11.55-22-23.13-44c-15.33-29.17-30.94-58.19-46.56-87.22,5.25-59.59,9.64-131.29,14.49-178.91,3.14-30.87-12.78-15.61-61.3-126.29-1.15-2.64-6.21-8.82-6.31-11.74.77,24.52,11.8,47.88,20.11,70.61,9.17,25.07,19.54,49.69,28.65,74.78-2.53,27-5.07,54-8,80.75-17.28-17.44-50.73-51.08-49.95-50.85-3.05,1.27-48.69-142.06-52.94-155.23-.09,12.85,10.15,82.39,17,104.21,7.61,24.32,12.48,51.34,29.5,71.19,8.72,10.2,17.85,20.06,26.9,30,8.76,9.59,16.43,21.25,26.27,29.75q-1.78,15.73-3.57,31.48c-1.14,10.08-4,21.35-3.5,31.47.34,7.72,5.34,14.51,8.78,21.26l13.31,26.13c18.37,36.08,37.2,71.93,55.93,107.82-35-16.12-70.68-31.58-106.62-45.48-15.15-5.85-30.71-10.67-45.58-17.22-17.18-7.57-31.6-18.29-45.48-30.72,0-.09.08-.17.11-.27q6.23-24.7,12-49.5c3.49-14.84,9.1-30.59,10.54-45.74,1.46-15.31-7.14-33.72-10.57-48.69-3.65-16-12.44-64.4-13.67-72.51-.39-2.6-1.16-19.66-4.94-18.06s6.31,105.55,14.19,136.07c-.42-1.62-6.85,27-9.09,35.38-4.31,16.25-9,32.39-14.33,48.35a549.1,549.1,0,0,1-63-77c1.37-29.16-2-132.53-.93-135.74-6.18,18.09-7.31,37.39-8.35,56.3-1.07,19.31-2.82,38.54-4.72,57.79-9.84-15.89-17.53-29.14-36.07-35.81,13.95,28.51,29,56.12,47.11,82.29-20.93-2.2-65.08,9-65.08,9,26.34,2.17,52.4,7,78.64,9.84,21.68,28.62,46.62,55.51,75.24,77.56-47.13,12.85-93.55,26.65-139.46,43.26,26.55-1.79,52.33-9.37,78.27-14.67q40.74-8.32,81.65-15.87c17.07,8.33,35.42,13.72,52.89,21.14,15.68,6.66,31.1,14,46.42,21.36q48.35,23.37,95.31,49.41c-.22,2.28-10.13,144.51-17.68,251,15.32,8.12,27.7,14.33,36.33,18.56h0l5.36,2.6a9.31,9.31,0,0,0,8,0c8.42-4,22.71-11.11,41.46-21C703,1502.56,693.27,1362.2,692.73,1356.5Z" transform="translate(-74.21 -69.25)"/><path class="cls-4" d="M970.49,1230.14c-13.2,8.37-15.65,27.76-15.65,27.76s19,5.8,32.17-2.57,15.64-27.76,15.64-27.76-19-5.81-32.16,2.57" transform="translate(-74.21 -69.25)"/><path class="cls-4" d="M755.48,1054.51s1.15-19.5-10.3-30.09S714,1016.2,714,1016.2s-1.15,19.49,10.29,30.07,31.17,8.24,31.17,8.24" transform="translate(-74.21 -69.25)"/><path class="cls-4" d="M700.66,1180.39s-5.19,18.85,3.81,31.51,28.79,14.35,28.79,14.35,5.19-18.86-3.81-31.52-28.79-14.34-28.79-14.34" transform="translate(-74.21 -69.25)"/><path class="cls-4" d="M755.52,1091.55s-18.29-7.64-32.27-.59S704.87,1117,704.87,1117s18.28,7.64,32.27.6,18.38-26.09,18.38-26.09" transform="translate(-74.21 -69.25)"/><path class="cls-4" d="M792.64,1199.91c-13.55,7.83-16.81,27.1-16.81,27.1s18.7,6.57,32.25-1.26,16.8-27.1,16.8-27.1-18.7-6.57-32.24,1.26" transform="translate(-74.21 -69.25)"/></g><path class="cls-6" d="M1144.87,206.91,998.21,304c6.1-18.69,5.07-39.68,11.51-58.26L882.23,355.49c9.54-16.32,14.7-35.05,24-51.54l-116,94.76C886.35,434.18,782,513.77,723,442.29c-41.69-50.49-22.27-110.38,47.7-81.41-34-60-161.44-68.82-226.29-87.33,20,9.49,93.8,78.41,71.44,143.25C577,529.46,430.13,439,539.24,398.71L423.25,304c9.26,16.48,14.41,35.23,24,51.54L319.73,245.69c6.43,18.58,5.4,39.57,11.5,58.26l-146.66-97c33.08,63.31,54.85,145.94,124.66,178.46-8-15.43,77.6,8.95,128.4,36.58L327.9,395.42,349.44,422l-92-35.75c16.76,41.73,45.63,82.71,92,91.18-4.15-7.13,61.67-17.67,98.73-15.81-28.56,4.63-56.07,16.64-84.35,22.84l36.43,10.73c-29.58,1.37-58.7,13.77-88.19,16.67C336,546.12,366.15,572.54,407,563c-8.95-3.56,37.7-30.23,70-40-18.39,10.69-35.23,24-53.77,34.42l21.18,3.73c-23.13,9.06-42.2,27.78-65.18,37.22,59.45,26.52,111.15,7.31,160.08-29.28-21.07,16.78-37.25,39.47-57.51,57.19,11.82-2.48.48,25.42-19.17,38.89,44.81-1.65,81.8-24.22,93.93-66.8,29.93,43.69,51.92,71.93,65.68,100.8l42.55-12.75,42.21,12.51c13.86-28.73,36-56.79,66-100.56,12.3,41.88,48.09,65.91,93.93,66.8-19.65-13.47-31-41.37-19.17-38.89-20.25-17.72-36.44-40.41-57.51-57.19,48.93,36.59,100.63,55.8,160.08,29.28-23-9.44-42-28.16-65.18-37.22l21.17-3.73C887.74,547,870.9,533.67,852.51,523c32.27,9.78,78.91,36.45,70,40,40.61,8.72,70.46-16.43,94.9-51.18-29.49-2.9-58.61-15.3-88.19-16.67l36.42-10.73c-28.29-6.13-55.77-18.21-84.35-22.84,37.07-1.86,102.89,8.68,98.74,15.81,48.4-12.52,70.4-47.07,92-91.18L980,422l21.54-26.53L891.81,422c50.8-27.63,136.41-52,128.4-36.58,69.79-28.72,93-118,124.66-178.46" transform="translate(-74.21 -69.25)"/><path class="cls-6" d="M664.72,686.4,522.71,729c-1.76,3.1-3.67,6.3-5.81,9.62,15.18,13-3,19.8,8.06,33.52,10.61,13.15,79.37-25.22,102.59-60.52,1.94,5,3.66,10.09,5.12,15.34-22.84,27.11-85.73,55.46-100.52,63.76,24.93,6.77,8.8,61.52,24.33,64,13.56,2.12,69.33-96.14,79.86-111.13.71,4.19,1.28,8.51,1.73,13-43.7,67.24-80.64,121.5-34.39,203.59-7.11-12.61,18.33-120.17,26.88-141.22-6.47,4.23-2.06-22.34,8.3-51.69a344.8,344.8,0,0,1-1.56,49.26c-11.26,119.26-57.39,164.42,27.42,258,87.3-88.5,39-143.87,27.41-258-1.93-19-2.54-35.27-1.87-49.76,10.49,29.54,15,56.44,8.47,52.19,8.56,21,34,128.61,26.89,141.22,46.32-82.23,9.19-136.53-34.61-203.93q.65-6.74,1.7-13c10.44,15.2,66.55,113.61,80.11,111.49,15.53-2.43-.6-57.18,24.33-64-14.84-8.34-78.17-36.87-100.78-64.08a154.48,154.48,0,0,1,5.16-15.35c23,35.39,92.16,74,102.81,60.85,11.07-13.72-7.36-20.84,7.83-33.88-2.43-3.64-4.69-7-6.82-10.14Z" transform="translate(-74.21 -69.25)"/></g></g></svg>