<svg id="Spirit" xmlns="http://www.w3.org/2000/svg" viewBox="0 0 1179 1596.91"><defs><style>.cls-1{fill:#ffda00;}.cls-2{fill:#b39602;}.cls-3{fill:#fff;}.cls-4{fill:#fff799;opacity:0.8;}.cls-5{fill:#ffefcf;}</style></defs><title>lined_coat-of-arms_spirit</title><g id="Nameplate_-_Spirit" data-name="Nameplate - Spirit"><path class="cls-1" d="M1243.18,69.25H84.24a9.81,9.81,0,0,0-9.82,9.8c0,83.49-.17,676.39-.21,844.84a669.34,669.34,0,0,0,8.72,110.24c17.66,105.9,56.74,231.41,141.88,321,167.55,176.23,387.73,287.51,434.65,310.09a9.84,9.84,0,0,0,8.51,0c46.91-22.58,267.09-133.86,434.64-310.09,85.14-89.55,124.22-215.06,141.88-321a669.34,669.34,0,0,0,8.72-110.24c0-168.44-.17-761.34-.21-844.85A9.81,9.81,0,0,0,1243.18,69.25Z" transform="translate(-74.21 -69.25)"/></g><g id="Shield_-_Spirit" data-name="Shield - Spirit"><path class="cls-1" d="M1215.4,105.82H110.77a9.35,9.35,0,0,0-9.36,9.34c0,79.62-.16,645-.2,805.61a638.08,638.08,0,0,0,8.31,105.13c16.83,101,54.08,220.67,135.24,306.07C404.45,1500,614.32,1606.13,659,1627.66a9.37,9.37,0,0,0,8.11,0C711.86,1606.13,921.72,1500,1081.42,1332c81.15-85.4,118.4-205.08,135.23-306.06A638,638,0,0,0,1225,920.79c0-160.62-.16-726-.2-805.63A9.34,9.34,0,0,0,1215.4,105.82Z" transform="translate(-74.21 -69.25)"/><path class="cls-2" d="M937,1040.93c-58.76-15.23-97.4-41-97.4-70.24,0-22.68,23.29-43.26,61.13-58.47L726.47,293.84c-.23,10.87-2.67,25-3.71,28.38l-1,3.19c-7.38,23.45-11.09,35.22,2.82,59,2.49,4.23,10.12,27.69,6,36.44a4.54,4.54,0,0,1-3,2.73c-2.43-1.49-11.18-10.13-16-14.87-3.76-3.72-5.94-5.86-6.86-6.59-10-8-16.44-18.41-18.06-29.4-1.53-10.45-.11-20.44,1.27-30.09,2-14.28,4.14-29.05-3.63-44.74a2.29,2.29,0,0,0-.38-.54,22.47,22.47,0,0,1-2.65-3.39c-4,0-9.09-.17-9.84-.2h0c1.76,10-10.93,29.84-17.51,37.41a123.41,123.41,0,0,1-8.84,8.88c-9,8.48-18.37,17.24-18.08,32.1a120.81,120.81,0,0,0,1.58,15.35c2,13.19,3.51,23.6-7.88,35.16a2.59,2.59,0,0,0-.32.42,6.26,6.26,0,0,1-2.4,2.39,144.36,144.36,0,0,1-3.89-15.66c-1.7-8.08-3.45-16.44-7.39-24.49-7.57-15.41-7.88-26.95-1.06-38.6,1.77-3,3.77-6.06,5.7-9,5.11-7.77,10.4-15.8,12.64-25.2,1-4.36,0-10.17-1-15.79-.72-4.05-1.4-8.14-1.22-11.1-1.13-.34-3.14-1-5.36-1.7L296.09,1382.31c54.45,50.4,111.87,94,164.91,130.11h0q9.35,6.35,18.48,12.39l.09.06q9.12,6,18,11.73l.07.05q8.89,5.71,17.53,11.11h0q4.27,2.68,8.49,5.27l.13.09q8.41,5.19,16.51,10.06l.21.12q8.06,4.86,15.77,9.37l.26.16q7.7,4.52,15,8.71l.17.1q7.37,4.21,14.3,8.1c-11-29.77-26.39-62.32-46.25-99.65-74.57-140.14,59.65-252.72,59.65-252.72-47.72,87.21-32.81,169.23,6.93,252.72,22.84,48,33.22,91.34,35.75,129.59,7.57,3.82,13.69,6.83,18.17,9a9.26,9.26,0,0,0,8.06,0l.4-.2h0l1.28-.62.06,0c5.05-2.44,11.83-5.79,20.1-10-2.78-54.4-24.86-111.46-66.27-189.29-74.56-140.14,59.66-252.71,59.66-252.71-47.72,87.2-32.81,169.22,6.92,252.71,31.39,66,39.25,123.16,35.53,170.37l.13-.07,5.2-2.85.27-.15,5.44-3,.22-.12,5.7-3.18.11-.07q5.9-3.3,12.09-6.84l.18-.1,6.05-3.48.43-.25,6-3.47.54-.32q3-1.73,6-3.51l.28-.16c.88-59.08-21.3-119.33-66.55-204.38-74.57-140.14,59.65-252.71,59.65-252.71-47.72,87.2-32.81,169.23,6.93,252.71,34.41,72.31,40.54,134.08,34.14,183.71l.16-.1,6.15-3.84.12-.08q9.48-5.94,19.28-12.27l.29-.18,6.36-4.13.36-.24q3.23-2.1,6.48-4.25l.11-.08q10-6.62,20.31-13.61l.17-.11c2.25-1.53,4.5-3.08,6.76-4.63l.21-.15q17.31-11.93,35.12-24.9l.06,0a1358,1358,0,0,0,122.28-100.18Z" transform="translate(-74.21 -69.25)"/><path class="cls-3" d="M815.43,609.52c-26.16,4.61-53.08,14.9-69.47,21.93.13-1.88.2-3.76.2-5.65a82.06,82.06,0,0,0-53-76.6l-29-82.45-29,82.45a82.05,82.05,0,0,0-53,76.6c0,1.89.06,3.76.19,5.64-14.63-6.27-37.83-15.22-61.37-20.33L453.49,842.66a171.28,171.28,0,0,0,25.76,5.88l2.33,1.54C483,851,516.44,872.7,572,872.7c3.1,0,6.23-.07,9.37-.2a152.38,152.38,0,0,0,9.84,17l-39.2,150.64,7.1,6a44.44,44.44,0,0,0,27.21,9.34,45.84,45.84,0,0,0,16.92-3.32c1.49,15.71,5.94,34.29,17.42,48.54,7.23,9,43.29,21.41,43.48,21.4s36.26-12.44,43.48-21.4c11.48-14.25,15.93-32.83,17.42-48.54a45.84,45.84,0,0,0,16.92,3.32,44.42,44.42,0,0,0,27.22-9.35l7.09-6-39.2-150.64a154.08,154.08,0,0,0,9.85-17c3.14.13,6.27.2,9.36.2,55.61,0,89.06-21.69,90.46-22.62l2.33-1.54a171,171,0,0,0,31.49-7.77Z" transform="translate(-74.21 -69.25)"/><path class="cls-3" d="M300.45,747.27l7.5,7.34c.81.79,13,12.45,37.22,22.85l10.23,10.67c.88.92,15.43,15.77,44.44,26.71l14.09,9.7c1,.66,15.9,10.77,39.56,18.12L521,611.11a158.07,158.07,0,0,0-32.78-4c-11,0-20.65,1.73-28.63,5.15l-.63.27-.6.33c-1.31.71-131.19,70.8-200.53,70.81h0a69.58,69.58,0,0,1-14.34-1.33L204.66,674l24.06,31.61C229.78,707,250.3,733.26,300.45,747.27Z" transform="translate(-74.21 -69.25)"/><path class="cls-3" d="M880.6,840.77c20.33-7.08,32.95-15.62,33.84-16.23l13.86-9.62C957.46,804,972.08,789.05,973,788.13l10.23-10.67c24.25-10.4,36.42-22.06,37.22-22.85l7.51-7.34c50.14-14,70.67-40.24,71.72-41.62L1123.7,674l-38.85,8.32a69.58,69.58,0,0,1-14.34,1.33c-69.35,0-199.23-70.1-200.53-70.81l-.6-.33-.63-.27c-8-3.42-17.62-5.15-28.63-5.15a143.44,143.44,0,0,0-24.69,2.39Z" transform="translate(-74.21 -69.25)"/><path class="cls-4" d="M721.75,325.41l1-3.19c1.32-4.24,4.86-25.62,3.38-36A133.69,133.69,0,0,1,684.42,294c-1,0-2.09,0-3.14,0a22.47,22.47,0,0,0,2.65,3.39,2.29,2.29,0,0,1,.38.54c7.77,15.69,5.67,30.46,3.63,44.74-1.38,9.65-2.8,19.64-1.27,30.09,1.62,11,8,21.43,18.06,29.4.92.73,3.1,2.87,6.86,6.59,4.8,4.74,13.55,13.38,16,14.87a4.54,4.54,0,0,0,3-2.73c4.1-8.75-3.53-32.21-6-36.44C710.66,360.63,714.37,348.86,721.75,325.41Z" transform="translate(-74.21 -69.25)"/><path class="cls-4" d="M520.42,128.37c1.64,44.06,18.68,81.5,49.27,108.29C599,262.3,639.15,276,682.79,275.31c19.58-.33,40-6.15,59.13-16.83a161.54,161.54,0,0,0,48.32-41.85c25.52-33,35.39-71.65,27.07-106.07-.31-1.25-.62-2.5-.95-3.74H521.89A105.37,105.37,0,0,0,520.42,128.37Z" transform="translate(-74.21 -69.25)"/><path class="cls-4" d="M961.7,231.05c-15.14-12.2-27.33-16.66-45-16.44-16.88.21-24.6-8.68-32.78-18.1a100.48,100.48,0,0,0-11.66-12l-1.37-1.16c-23-19.47-32.9-23.48-37.19-23.41a2.71,2.71,0,0,0-3,2.13c-1.11,3.58-3.26,8.6-5.53,13.91-4.21,9.82-9.38,21.9-9.73,29,3.21,1.06,7.11,1.16,10.59,1.11,1.39,0,2.79-.08,4.19-.13s2.88-.1,4.31-.13A40.42,40.42,0,0,1,846,207c10.32,2.93,18,10.07,25.43,17,4.74,4.39,9.63,8.94,15.07,12.21a27.71,27.71,0,0,0,15.33,4.18c5.9-.1,11.95-1.8,18.36-3.6,1.36-.39,2.75-.78,4.15-1.16,2.39-.64,8.94-1.2,16.52-1.84,7.13-.61,17.34-1.48,21.41-2.38l-.07,0A1.84,1.84,0,0,1,961.7,231.05Z" transform="translate(-74.21 -69.25)"/><path class="cls-4" d="M404.39,144.33c6.64-2.53,13.77-4.89,21-5,7.56-.12,14.72,2.1,23.2,7.22,17,10.26,28.76,16.61,48.51,18.13,1.09.08,2.09.12,3,.1,2.81,0,4.69-.58,5.58-1.58,1.4-1.57,1.06-5,.66-8.93a71.75,71.75,0,0,1-.46-7.24c0-2,.27-4.73.57-7.91.59-6.25,1.44-15.33.07-19.68a17.93,17.93,0,0,0-5.21,3.11,2.19,2.19,0,0,1-.68.39,50.05,50.05,0,0,1-15.8,2.82c-12.22.2-23.58-4-34.56-8.14-8.48-3.16-17.25-6.43-26.43-7.69a12.16,12.16,0,0,0-1.74-.1c-8.65.15-20.05,8.69-25.42,13.71-6.47,6-14.29,8.41-21.86,10.69-5.56,1.68-10.85,3.28-15,6.24,2.61,4.54,11.13,7,23.81,6.79C392.17,147.1,400.92,145.65,404.39,144.33Z" transform="translate(-74.21 -69.25)"/><path class="cls-4" d="M975.58,133.46a2.08,2.08,0,0,1-.65-.22c-7.49-4-13.53-5.72-19.59-5.62-5.51.1-11.29,1.63-19.31,5.14a52.36,52.36,0,0,1-20.43,4.83c-9.5.16-18.77-2.62-30.06-9-14.27-8.07-25.48-14.07-39.9-17.75a27.78,27.78,0,0,0-7.08-1c-2.13,0-3.61.54-4.51,1.54-2.12,2.35-1.63,7.91-1.11,13.79.24,2.69.48,5.47.53,8.29,0,1.23-.17,3.2-.42,5.7-.35,3.59-1.24,12.71-.21,15.19.47,0,.95,0,1.43,0,3.88-.06,7.8-1.11,12-2.21,4.41-1.17,9-2.39,13.77-2.46a25.94,25.94,0,0,1,2.94.1c9.66.84,18.59,4.29,27.23,7.63A148.15,148.15,0,0,0,907,163.14a39,39,0,0,0,10.26,1.21c11.13-.19,21.07-5.41,29.31-10.5a94.77,94.77,0,0,0,8.72-6.44c5-3.93,10.08-8,15.32-10a24.15,24.15,0,0,1,5-1.05,35.12,35.12,0,0,0,4.45-.83A9.06,9.06,0,0,0,975.58,133.46Z" transform="translate(-74.21 -69.25)"/><path class="cls-4" d="M803,347.15c-16.7-10.77-15.41-31-14.27-48.88.27-4.24.52-8.25.52-11.93,0-3.12-5.27-26.53-11.28-32.43a3.13,3.13,0,0,0-1.86-1,1.63,1.63,0,0,0-.9.35c-2.64,1.85-7.6,4.35-13.34,7.24-9.5,4.78-23.55,11.85-26.94,16.64a32.62,32.62,0,0,0,6,5.76,22,22,0,0,1,6.14,4.84,37.21,37.21,0,0,1,8.72,9.45c5.44,9,6.87,18.86,8.26,28.36.94,6.5,1.92,13.22,4.21,19.46,4.78,13,14.66,21.1,32,26.24,3.56,1.06,10.13,6,16.47,10.76,3.32,2.49,7.66,5.75,9.75,6.93a2.33,2.33,0,0,0,0-1.22,2,2,0,0,1-.06-.77C828.58,366,821,358.77,803,347.15Z" transform="translate(-74.21 -69.25)"/><path class="cls-4" d="M909.67,318.17c-6.52-14.81-15.15-22.21-30.78-26.37-22-5.92-28.77-20-36-39.23-1-2.61-1.86-5.27-2.73-7.84-4.55-13.53-8.85-26.3-23.86-30.41h-.13c-3.15.05-13.8,8.06-23.33,18.69-6.23,7-7.94,10.57-8.16,11.75a17.73,17.73,0,0,0,4.6,3.73c4.12.56,8.17,2.53,12.38,6,5.35,2.59,11.27,6.09,15.05,12.28,1.83,3,3.56,6.11,5.4,9.39,6.18,11,12.57,22.46,22.41,29.27,10.09,7,22.5,7.9,34.49,8.8,5.71.44,11.66,2.42,17.41,4.33,5.35,1.79,10.45,3.48,15,3.88a6.08,6.08,0,0,0-1.45-3.77A2.43,2.43,0,0,1,909.67,318.17Z" transform="translate(-74.21 -69.25)"/><path class="cls-4" d="M448.63,210.43c2.77,0,8.3.78,15.29,1.79,12.05,1.72,28.55,4.08,41.47,3.86,12.69-.21,17-2.84,18.37-5,1.06-1.67.93-3.91-.39-6.86a100.92,100.92,0,0,1-4-11.68c-2.73-9.06-6.14-20.34-11.64-20.25a8.44,8.44,0,0,0-4.43,1.73,73.83,73.83,0,0,1-40.33,13,69.28,69.28,0,0,1-10.09-.57,75.75,75.75,0,0,0-11.15-.69c-15.57.26-26.49,6.19-33.39,18.14A169.63,169.63,0,0,1,396,222.33c-1.85,2.41-6.82,5.44-12.08,8.65a88,88,0,0,0-8.77,5.78c2.76,3.13,8.87,3.53,12.48,3.47,7.68-.13,16.37-2.36,20.33-4.45,5-2.64,9.31-6.78,13.47-10.79,7.32-7.06,14.89-14.35,26.88-14.55Z" transform="translate(-74.21 -69.25)"/><path class="cls-4" d="M560.32,251.42c-.19-3.21-3.94-6.31-7.9-9.59a57.52,57.52,0,0,1-7.58-7.07l-.13-.15c-5.45-6.47-8.74-10.38-10.53-10.35-1.38,0-3.72,2.48-7,5.88-1.48,1.56-3.16,3.32-5.19,5.34-10.31,10.28-24.43,15.06-38.08,19.68-3.87,1.31-7.53,2.55-11.11,3.91-13.47,5.1-21.09,15-25.48,33.17a69.62,69.62,0,0,0-1.51,9.47c-.13,1.14-.26,2.3-.42,3.47-.49,3.8-2.68,7.45-4.79,11-1.65,2.74-3.21,5.35-3.71,7.59a10.86,10.86,0,0,0,3,.38,11.64,11.64,0,0,0,3.1-.49l.12,0c11-2.6,19.84-10.87,27.14-25.27,9.86-19.48,28-22.57,44.44-23,17-.48,32-6.68,42.28-17.46C559.36,255.42,560.43,253.32,560.32,251.42Z" transform="translate(-74.21 -69.25)"/><path class="cls-4" d="M613.77,286.92c-.72-7.43-16.27-13.25-27.62-17.5-5.76-2.16-10.46-3.92-13.26-5.8-6.45,17.86-8.89,24.57-27.24,38.85-17,13.22-25.08,23-25,43,0,4.37.43,8.65.82,12.8,1,10.6,2,20.63-3.21,31.56,5-1.85,16.42-9.73,18-11.54,5.73-6.46,7-14.63,8.41-23.28,1.23-7.73,2.5-15.72,7.14-22.59,7.55-11.21,20.67-17.26,33.35-23.12a156.35,156.35,0,0,0,16.24-8.25C609.89,295.84,614.17,291,613.77,286.92Z" transform="translate(-74.21 -69.25)"/><path class="cls-4" d="M621.82,285.63c-.18,3,.5,7.05,1.22,11.1,1,5.62,2,11.43,1,15.79-2.24,9.4-7.53,17.43-12.64,25.2-1.93,2.93-3.93,6-5.7,9-6.82,11.65-6.51,23.19,1.06,38.6,3.94,8.05,5.69,16.41,7.39,24.49A144.36,144.36,0,0,0,618,425.46a6.26,6.26,0,0,0,2.4-2.39,2.59,2.59,0,0,1,.32-.42c11.39-11.56,9.84-22,7.88-35.16a120.81,120.81,0,0,1-1.58-15.35c-.29-14.86,9.05-23.62,18.08-32.1a123.41,123.41,0,0,0,8.84-8.88c6.58-7.57,19.27-27.39,17.51-37.41A205.25,205.25,0,0,1,621.82,285.63Z" transform="translate(-74.21 -69.25)"/><path class="cls-5" d="M1147.41,892.7a540.77,540.77,0,0,0-86.66-6.77c-122.14,0-221.15,38-221.15,84.76,0,40.65,74.7,74.61,174.36,82.84,15.5,29.87,84.27,52.39,166.78,52.39,6.87,0,13.65-.16,20.3-.46,7.15-26.8,12.64-53.26,16.86-78.55a638,638,0,0,0,8.31-105.12c0-15.74,0-35.37,0-58C1187.25,866.54,1156.31,878,1147.41,892.7Z" transform="translate(-74.21 -69.25)"/><path class="cls-5" d="M147.08,623.58c82.51,0,151.28-22.52,166.78-52.4C413.52,563,488.22,529,488.22,488.34c0-46.81-99-84.75-221.14-84.75a540.84,540.84,0,0,0-86.67,6.76c-8.9-14.71-39.86-26.17-78.82-29,0,76.3,0,160.12-.06,239.81A432.36,432.36,0,0,0,147.08,623.58Z" transform="translate(-74.21 -69.25)"/></g></svg>