<svg id="Unity" xmlns="http://www.w3.org/2000/svg" viewBox="0 0 1179 1596.91"><defs><style>.cls-1{fill:#0093d8;}.cls-2{fill:#007db6;}.cls-3{fill:#00c0f3;}.cls-4{fill:#d5e7f0;}.cls-5{fill:#87cdec;}</style></defs><title>lined_coat-of-arms_unity</title><path class="cls-1" d="M1243.18,69.25H84.24a9.81,9.81,0,0,0-9.82,9.8c0,83.49-.17,676.39-.21,844.84a669.34,669.34,0,0,0,8.72,110.24c17.66,105.9,56.74,231.41,141.88,321,167.55,176.23,387.73,287.51,434.65,310.09a9.84,9.84,0,0,0,8.51,0c46.91-22.58,267.09-133.86,434.64-310.09,85.14-89.55,124.22-215.06,141.88-321a669.34,669.34,0,0,0,8.72-110.24c0-168.44-.17-761.34-.21-844.85A9.81,9.81,0,0,0,1243.18,69.25Z" transform="translate(-74.21 -69.25)"/><g id="Shield_-_Unity" data-name="Shield - Unity"><path class="cls-2" d="M1081.68,1332.78c81.33-85.45,118.67-205.21,135.53-306.26a637.73,637.73,0,0,0,8.33-105.19c0-160.73-.16-726.49-.2-806.18a9.36,9.36,0,0,0-9.38-9.35H110.09a9.75,9.75,0,0,0-1.88.19l-.16,0a10.5,10.5,0,0,0-1.59.5l-.12.06a9.6,9.6,0,0,0-2.19,1.34c-.06,0-.12.12-.19.17s-.32.28-.47.43a4.48,4.48,0,0,0-.36.4l-.25.26-.3.4c-.08.11-.16.21-.23.32a7.92,7.92,0,0,0-.42.69.22.22,0,0,0-.05.08c-.11.2-.21.42-.31.63l-.09.18a9.94,9.94,0,0,0-.54,1.73v0a9,9,0,0,0-.19,1.88c0,82-.18,681.05-.21,820a479.08,479.08,0,0,0,4.5,66.31c14.72,105.74,51.18,238.73,139.37,331.38,160.08,168.2,370.45,274.39,415.22,295.91a7.39,7.39,0,0,0,.88.36l.5.16.36.1a5.47,5.47,0,0,0,.68.14l.16,0c.26,0,.52.07.79.09h0a9.38,9.38,0,0,0,3.49-.89C711.3,1607.13,921.63,1501,1081.68,1332.78Z" transform="translate(-74.21 -69.25)"/><path class="cls-1" d="M245.25,1332.27c165.31,174,384.35,281.65,418.48,297.82,34.12-16.17,253.17-123.81,418.47-297.82,81.18-85.45,118.45-205.21,135.28-306.26a629.69,629.69,0,0,0,8.22-93.68c-97.67,38.52-229.25,66.83-379,79.61q55-25.58,94-66,46.15-48,69.54-113.24T1033.66,690V105.31h-192V682.57q0,40.62-12.92,75.08t-36.31,59.69A166.28,166.28,0,0,1,737,856.73q-32,14.16-70.16,14.16T596.1,856.73a164.37,164.37,0,0,1-56-39.39q-23.4-25.2-36.31-59.69t-12.93-75.08V105.31h-192V690q0,77.55,23.39,142.78T391.78,946q38.89,40.44,94,66c-152.35-13-285.89-42.1-384.06-81.66A631.54,631.54,0,0,0,110,1026C126.8,1127.05,164.07,1246.82,245.25,1332.27Z" transform="translate(-74.21 -69.25)"/><path class="cls-3" d="M972.8,904.83a56.43,56.43,0,0,0,15.41-38.68c0-31.67-26.21-57.35-58.55-57.35s-58.55,25.68-58.55,57.35c0,25.08,16.45,46.34,39.34,54.13-.94,1.73-1.87,3.53-2.79,5.38-25.4,32.71-65.41,67.26-94.7,80.32a22.38,22.38,0,0,0-12.77,25.67q.78,3.21,1.44,6.5c2.11,10.74,12.13,18.18,23.72,14.31a233.3,233.3,0,0,0,53.77-26.67c-6.39,39-10,84.15-10,132.22l.81,90.29a17.38,17.38,0,0,0,17.52,17.15h16.42a18.2,18.2,0,0,0,3.64-.38c7.75-2.07,13.56-9.64,13.56-18.67,0,0,1.15-100.67,25.74-100.67,25.51,0,25.65,102.15,25.65,102.15a19.43,19.43,0,0,0,10.66,17.63,17.66,17.66,0,0,0,6.47,1.25H1006a17.39,17.39,0,0,0,17.51-17.15l.81-91.6C1024.29,1041.29,1002.81,942,972.8,904.83Z" transform="translate(-74.21 -69.25)"/><path class="cls-4" d="M357.53,904.83a56.46,56.46,0,0,1-15.4-38.68c0-31.67,26.21-57.35,58.55-57.35s58.55,25.68,58.55,57.35c0,25.08-16.45,46.34-39.34,54.13.94,1.73,1.87,3.53,2.78,5.38,25.4,32.71,65.42,67.26,94.71,80.32a22.39,22.39,0,0,1,12.77,25.67q-.78,3.21-1.44,6.5c-2.11,10.74-12.14,18.18-23.73,14.31a233.44,233.44,0,0,1-53.76-26.67c6.38,39,10,84.15,10,132.22l-.81,90.29a17.38,17.38,0,0,1-17.51,17.15H426.51a18.17,18.17,0,0,1-3.63-.38c-7.75-2.07-13.56-9.64-13.56-18.67,0,0-1.15-100.67-25.74-100.67-25.52,0-25.65,102.15-25.65,102.15a19.42,19.42,0,0,1-10.67,17.63,17.62,17.62,0,0,1-6.47,1.25H324.37a17.39,17.39,0,0,1-17.51-17.15L306,1158C306,1041.29,327.52,942,357.53,904.83Z" transform="translate(-74.21 -69.25)"/><path class="cls-5" d="M820.94,996.62c-34.23-15.26-81-55.64-110.69-93.87q-3.72-7.5-7.64-13.79a66.62,66.62,0,0,0,30.47-55.76c0-37-30.64-67-68.44-67s-68.43,30-68.43,67A66.59,66.59,0,0,0,626.68,889q-3.93,6.28-7.64,13.79c-29.69,38.23-76.46,78.62-110.69,93.87a26.17,26.17,0,0,0-14.93,30q.91,3.75,1.69,7.59c2.46,12.55,14.18,21.25,27.72,16.73a272.66,272.66,0,0,0,62.85-31.17c-7.47,45.64-11.74,98.35-11.74,154.54l.95,105.53a20.32,20.32,0,0,0,20.46,20h19.2a20.32,20.32,0,0,0,20.47-20l.23-21.13c1.6-21.62,0-83.63,29.45-83.63s29.55,75.18,29.57,82.94v23.35a20.32,20.32,0,0,0,20.47,20h19.2a20.32,20.32,0,0,0,20.46-20l1-107.06c0-56.19-4.28-108.9-11.74-154.54A272.79,272.79,0,0,0,806.45,1051c13.55,4.52,25.27-4.18,27.73-16.73q.78-3.84,1.68-7.59A26.17,26.17,0,0,0,820.94,996.62Z" transform="translate(-74.21 -69.25)"/></g></svg>